<svg width="1000" height="302" fill="none" xmlns="http://www.w3.org/2000/svg"><path fill-rule="evenodd" clip-rule="evenodd" d="M620.38 235.668c-58.111 42.833-142.341 65.686-214.86 65.686-101.685 0-193.227-37.609-262.483-100.161-5.441-4.919-.565-11.622 5.964-7.792 74.74 43.486 167.153 69.647 262.613 69.647 64.38 0 135.202-13.32 200.322-40.961 9.837-4.179 18.064 6.442 8.444 13.581" fill="#9CA3AF"/><path fill-rule="evenodd" clip-rule="evenodd" d="M644.539 208.027c-7.4-9.489-49.101-4.483-67.818-2.263-5.703.696-6.573-4.266-1.437-7.836 33.213-23.375 87.712-16.628 94.067-8.793 6.355 7.879-1.654 62.509-32.865 88.583-4.788 4.004-9.359 1.871-7.226-3.439 7.009-17.499 22.723-56.719 15.279-66.252M578.026 32.908V10.186c0-3.439 2.612-5.746 5.746-5.746H685.5c3.265 0 5.877 2.35 5.877 5.746v19.458c-.044 3.264-2.786 7.53-7.661 14.277l-52.714 75.263c19.588-.479 40.264 2.437 58.024 12.449 4.005 2.264 5.093 5.572 5.398 8.836v24.246c0 3.309-3.657 7.183-7.487 5.18-31.298-16.41-72.868-18.195-107.474.174-3.526 1.916-7.226-1.915-7.226-5.223v-23.027c0-3.7.044-10.012 3.744-15.627l61.071-87.581h-53.149c-3.265 0-5.877-2.307-5.877-5.703M206.939 174.683h-30.95c-2.96-.217-5.31-2.437-5.528-5.267V10.578c0-3.178 2.655-5.703 5.963-5.703h28.86c3.004.131 5.398 2.438 5.616 5.311V30.95h.566c7.53-20.067 21.677-29.426 40.743-29.426 19.371 0 31.472 9.358 40.178 29.426 7.487-20.067 24.507-29.426 42.746-29.426 12.971 0 27.162 5.354 35.824 17.368 9.794 13.363 7.792 32.778 7.792 49.797l-.044 100.249c0 3.177-2.655 5.745-5.963 5.745h-30.906c-3.091-.217-5.572-2.698-5.572-5.745V84.752c0-6.704.61-23.419-.87-29.774-2.307-10.665-9.229-13.669-18.196-13.669-7.487 0-15.322 5.006-18.5 13.016-3.177 8.01-2.872 21.416-2.872 30.427v84.186c0 3.177-2.656 5.745-5.964 5.745h-30.906c-3.134-.217-5.572-2.698-5.572-5.745l-.043-84.186c0-17.717 2.916-43.79-19.066-43.79-22.243 0-21.373 25.42-21.373 43.79v84.186c0 3.177-2.655 5.745-5.963 5.745M778.958 1.524c45.923 0 70.779 39.437 70.779 89.583 0 48.448-27.467 86.885-70.779 86.885-45.096 0-69.647-39.438-69.647-88.582 0-49.45 24.855-87.886 69.647-87.886Zm.261 32.43c-22.809 0-24.246 31.079-24.246 50.45 0 19.414-.304 60.854 23.985 60.854 23.985 0 25.116-33.431 25.116-53.803 0-13.407-.565-29.425-4.614-42.136-3.482-11.056-10.403-15.366-20.241-15.366M909.285 174.683h-30.819c-3.091-.217-5.572-2.698-5.572-5.745l-.043-158.883c.261-2.916 2.829-5.18 5.963-5.18H907.5c2.699.131 4.919 1.96 5.528 4.44v24.29h.566c8.663-21.721 20.807-32.081 42.18-32.081 13.886 0 27.424 5.006 36.13 18.717C1000 32.951 1000 54.325 1000 69.691v99.987c-.348 2.785-2.916 5.005-5.963 5.005H963c-2.829-.217-5.18-2.307-5.485-5.005V83.402c0-17.368 2.003-42.789-19.37-42.789-7.531 0-14.452 5.05-17.891 12.71-4.353 9.708-4.919 19.371-4.919 30.08v85.535c-.043 3.177-2.742 5.745-6.05 5.745M496.931 98.812c0 12.058.305 22.113-5.789 32.821-4.919 8.706-12.754 14.06-21.417 14.06-11.883 0-18.848-9.054-18.848-22.418 0-26.378 23.636-31.167 46.054-31.167v6.704Zm31.211 75.436c-2.046 1.829-5.006 1.959-7.313.74-10.273-8.531-12.145-12.493-17.76-20.633-16.977 17.325-29.034 22.505-51.017 22.505-26.074 0-46.315-16.062-46.315-48.23 0-25.117 13.581-42.224 32.995-50.582 16.803-7.4 40.265-8.706 58.199-10.751v-4.005c0-7.357.566-16.062-3.787-22.418-3.744-5.702-10.969-8.053-17.368-8.053-11.797 0-22.287 6.051-24.855 18.587-.523 2.786-2.569 5.529-5.398 5.66l-29.992-3.222c-2.525-.566-5.354-2.612-4.614-6.486C417.795 10.97 450.703 0 480.129 0c15.061 0 34.736 4.005 46.62 15.41 15.061 14.06 13.624 32.82 13.624 53.236v48.231c0 14.495 6.007 20.85 11.666 28.685 1.959 2.786 2.394 6.138-.13 8.227-6.312 5.268-17.543 15.062-23.724 20.546l-.043-.087M91.194 98.812c0 12.058.305 22.113-5.79 32.821-4.918 8.706-12.71 14.06-21.416 14.06-11.883 0-18.804-9.054-18.804-22.418 0-26.378 23.636-31.167 46.01-31.167v6.704Zm31.211 75.436c-2.046 1.829-5.006 1.959-7.313.74-10.273-8.531-12.102-12.493-17.76-20.633-16.977 17.325-28.99 22.505-51.017 22.505C20.285 176.86 0 160.798 0 128.63c0-25.117 13.625-42.224 32.995-50.582 16.803-7.4 40.265-8.706 58.199-10.751v-4.005c0-7.357.566-16.062-3.743-22.418-3.788-5.702-11.013-8.053-17.369-8.053-11.796 0-22.33 6.051-24.898 18.587-.523 2.786-2.569 5.529-5.355 5.66L9.794 53.845c-2.525-.566-5.31-2.612-4.614-6.486C12.101 10.97 44.966 0 74.392 0c15.06 0 34.736 4.005 46.62 15.41 15.061 14.06 13.624 32.82 13.624 53.236v48.231c0 14.495 6.007 20.85 11.666 28.685 2.003 2.786 2.438 6.138-.087 8.227-6.312 5.268-17.542 15.062-23.723 20.546l-.087-.087" fill="#9CA3AF"/></svg>