<svg width="2500" height="484" fill="none" xmlns="http://www.w3.org/2000/svg"><path d="M158.375 476.474H64.172V241.639H0v-76.458h64.17v-54.405C64.17 46.306 92.552.069 186.5.069c19.87 0 51.065 4.005 51.065 4.005v70.995H204.8c-33.385 0-46.42 10.155-46.42 38.23v51.882h77.935l-6.94 76.458h-70.997l-.003 234.835Zm216.15-317.403c-1.373 0-2.785.05-4.183.085-87.35 0-127.315 65.705-127.315 158.975 0 117.495 51.841 164.52 127.998 164.52 43.573 0 72.2-18.34 89.6-52.565v46.42h89.6V165.214h-89.6v47.872c-14.208-30.8-43.635-53.65-86.1-54.015Zm22.783 73.558c36.687 0 58.707 25.59 58.707 69.117l.085 44.458c0 29.337-18.187 63.66-58.792 63.66-62.425 0-60.758-67.405-60.758-89.855 0-75.518 33.26-87.38 60.758-87.38Zm189.102 88.247c0-37.827-1.81-161.602 159.45-161.602 64.732 0 91.763 20.582 91.763 20.582l-21.725 67.383s-26.996-14.865-62.171-14.865c-45.052 0-73.799 26.117-73.799 72.07l.049 32.95c0 44.155 27.738 73.63 73.843 73.63 32.045 0 61.58-15.005 61.58-15.005l21.67 65.975s-24.715 20.712-90.758 20.712c-153.545 0-159.899-111.05-159.899-161.83h-.003Zm776.57-161.72c87.35 0 127.95 65.705 127.95 158.975 0 117.495-51.84 164.52-128 164.52-43.57 0-75.78-18.337-93.18-52.565v46.42l-88.48-.035V9.534l93.94-8.193V208.87c13.56-36.308 58.11-49.713 87.77-49.713Zm-26.33 73.473c-36.69 0-61.44 25.59-61.44 69.117l-.09 44.458c-.05 29.337 17.14 63.66 61.53 63.66 62.42 0 60.75-67.405 60.75-89.855 0-75.518-33.25-87.38-60.75-87.38Zm-336.04-73.215c-99.077 0-151.382 54.017-151.382 150.012v17.835c0 124.593 73.452 156.67 161.022 156.67 85.12 0 123.65-23.807 123.65-23.807l-17.58-63.4s-45.32 19.282-94.81 19.282c-51.297 0-73.36-13.075-79.015-62.375h198.915v-50.862c0-104.13-58.71-143.358-140.8-143.358v.003Zm2.38 63.485c34.3 0 56.52 21.03 55.3 69.802H942.667c2.005-51.332 25.97-69.8 60.323-69.8v-.002Zm675.24-63.913c-101.74 0-155.31 57.335-155.31 160.083 0 140.975 92.33 163.667 155.48 163.667 92.44 0 153.94-49.767 153.94-162.387 0-117.218-69.15-161.363-154.11-161.363Zm-1.28 73.898c44.74 0 62.46 33.482 62.46 71.595v32.767c0 46.17-24.8 72.875-62.63 72.875-35.38 0-60.24-24.98-60.24-72.875v-32.767c0-51.08 29.58-71.595 60.41-71.595Zm342.52-73.898c-101.74 0-155.3 57.335-155.3 160.083 0 140.975 92.33 163.667 155.47 163.667 92.44 0 153.95-49.767 153.95-162.387 0-117.218-69.16-161.363-154.12-161.363Zm-1.27 73.898c44.73 0 62.46 33.482 62.46 71.595v32.767c0 46.17-24.81 72.875-62.63 72.875-35.38 0-60.25-24.98-60.25-72.875v-32.767c0-51.08 29.59-71.595 60.42-71.595Zm190.88 243.59V9.534l94.21-8.193v312.973l93.47-149.133h99.48l-97.5 154.458L2500 476.474h-99.77l-96.94-152.285v152.285h-94.21Z" fill="#9CA3AF"/></svg>