<svg width="171" height="43" fill="none" xmlns="http://www.w3.org/2000/svg"><path d="M27.087.534c-.3.3-4.7.6-9.7.8-8.8.2-9.4.3-11.7 3-3.3 3.8-3.3 9.5 0 12.6l2.4 2.2-2.4 2.4c-2.8 2.8-2.9 3.4-1 6.1 1.2 1.6 2.9 2 11 2.2 10.1.4 12.3 1.4 11.1 5.2-1.2 3.8-5.2 5.4-13.2 5.5-6.6 0-7.7-.3-9.3-2.3-1.5-1.8-1.7-2.9-1-4.8 1.2-3-.3-3.2-2.3-.3-1.6 2.2-1.2 5.2.8 6.9 2.3 1.9 11.1 3 17.2 2 4.5-.7 6.4-1.6 8.6-4 3.3-3.7 3.4-6.4.2-9.5-2.2-2.3-3.2-2.5-11.5-2.5-8.9 0-9.1-.1-8.8-2.3.3-1.9 1.1-2.3 5.8-2.7 3-.3 6.5-1.1 7.7-1.8 4.9-2.8 6.8-8.9 3.8-12.8-2.1-2.8-1.9-3.2 1.7-3.6 1.7-.2 3.3-.9 3.6-1.6.4-1.2-1.9-1.7-3-.7Zm-8.9 3c7.2 3.7 4.5 15.5-3.5 15.5-4.8 0-7.4-2.9-7.4-8.3 0-4.3 1.5-6.7 5-8 2.4-.9 2.9-.8 5.9.8ZM37.287 2.334c-3.2 1.6-4.8 6-3 8.2 1.7 2 4 .2 3.3-2.5-.8-3 1.5-5 5.7-5 4.7 0 8 3.6 8 8.6 0 3.4 0 3.4-4.7 3.4-5.9 0-11.7 1.5-13.3 3.5-2.1 2.5-1.5 8.7 1 10.7 4 3.2 13.4 1.5 15.8-2.8.8-1.4 1-1.2 1.6 1 .7 2.8 4.3 4.3 7.3 3.2 1.5-.6 1.4-.9-.7-1.9-2.3-1.2-2.5-1.9-3-11.2-.3-5.5-1-10.8-1.4-11.8-2-4.2-11.3-6.1-16.6-3.4Zm14 17.2c0 1.4-1.3 3.9-2.9 5.7-2.2 2.5-3.7 3.2-6.5 3.2-4.3 0-5.8-1.3-5.8-5 0-4.2 3.4-6.4 9.8-6.4 5.1 0 5.4.1 5.4 2.5ZM68.787 1.534c-.5.2-2.3.6-3.9 1l-3 .6 2.5 1.2c2.3 1.2 2.4 1.6 2.4 12.2 0 10.3-.1 11-2.2 12.1-3.3 1.6-1.7 2.4 4.8 2.4 5.7 0 9-1.6 4.7-2.2-2.2-.3-2.3-.8-2.6-9.3-.2-9.3.7-12.8 4-14.9 1.3-.8 2.1-.6 3.6.7 2.4 2.2 4.2 2.2 4.2-.1 0-4.7-5.8-5.6-9.5-1.6-2.4 2.5-2.5 2.6-2.5.6 0-2.2-.9-3.1-2.5-2.7ZM91.287 1.834c-4.6.6-5.7 1.3-3.2 2.3 2.1.8 2.2 1.3 2.2 12.5 0 10.7-.1 11.6-2 12.1-3.6 1-1 2.3 4.5 2.3 5.8 0 8.1-1.4 4-2.4-2.4-.6-2.5-1-2.5-7.6 0-9.2 2.2-14.8 6.6-16.6 3.7-1.6 7.7-.6 8.8 2.1.3.9.6 6.2.6 11.7 0 9.1-.2 10-2 10.5-3.6 1-1 2.3 4.6 2.3 5.4 0 7.2-1.3 3.4-2.5-1.8-.6-2-1.5-2-11.6 0-10.3-.1-11.1-2.5-13.4-3.6-3.7-9.7-3.5-13.7.5-1.6 1.6-3.1 3-3.3 3-.2 0-.5-1.2-.7-2.8-.2-2.2-.7-2.6-2.8-2.4ZM125.987 4.034c-7.3 6.4-6.9 20.3.8 25 2 1.3 5 2 8 2 4 0 5.2-.5 8.1-3.4 1.9-1.9 3.4-4.3 3.4-5.5 0-2.9-.7-2.6-2.5 1-2.3 4.3-7.5 6.4-12.2 4.8-2.6-.8-4-2.1-5.4-5.3-3.4-7.5-3.4-7.6 9.1-7.6 12.2 0 12.3-.1 9.6-6.4-3.3-7.9-12.6-10.2-18.9-4.6Zm12.3 0c1.6.8 4 5.8 4 8.1 0 .5-3.8.9-8.5.9-7 0-8.5-.3-8.5-1.5 0-2.2 2.7-7.2 4.2-7.8 2.2-.9 6.8-.7 8.8.3ZM155.287 1.834c-4.6.6-5.7 1.3-3.2 2.3 2.1.8 2.2 1.3 2.2 12.3 0 10.6-.2 11.5-2 12.1-4 1.3-1.8 2.5 4.5 2.5 6.6 0 8.6-1.3 3.9-2.4-2.6-.7-2.6-.7-2.2-9.4.2-5 1-10 1.8-11.7 1.7-3.4 4.9-4.5 6.2-2.1 1.5 2.7 4 2 3.6-1.2-.2-2.2-.8-2.8-3.5-3-2.6-.3-3.6.3-5.5 2.8l-2.3 3.2-.5-2.9c-.4-2.3-.9-2.7-3-2.5Z" fill="#9CA3AF"/></svg>