<svg id="Layer_1" data-name="Layer 1" xmlns="http://www.w3.org/2000/svg" viewBox="0 0 425.14 428.14"><defs><style>.cls-1{fill:#a2aaad;}</style></defs><path class="cls-1" d="M89,340.13V88c0-3.91.79-4.7,4.7-4.7h39.93c3.92,0,4.7.53,4.7,4.44v6.79c0,3.65-.78,4.43-4.7,4.43H106V328.9h27.66c3.92,0,4.7.79,4.7,4.44v6.79c0,3.91-.78,4.69-4.7,4.69H93.71C89.8,344.82,89,344,89,340.13Z"/><path class="cls-1" d="M151.65,249.56c-1.31-3.13-.52-5.22,2.87-6.26L161.3,241c3.14-1,4.7-.52,6.27,2.87,6,16.44,19.57,22.71,39.93,22.71,25.05,0,36.8-8.61,36.8-23.75,0-18.53-15.14-21.66-37.84-24-26.36-2.61-52.72-6.27-52.72-39.41,0-24,17.22-39.15,51.41-39.15,30,0,45.67,11.22,53.24,28.45,1.83,3.39.78,5.48-2.35,6.78l-6.52,2.87c-3.66,1.31-4.7.79-6.53-2.34-5.48-12-14.87-20.1-37.58-20.1-23,0-34.19,8.09-34.19,23,0,20.61,16.44,22.44,39.41,24.53C239.08,206,261.26,212,261.26,242c0,24.28-17.22,39.94-53.5,39.94C179.31,281.93,160.26,272,151.65,249.56Z"/><path class="cls-1" d="M274.57,340.13v-6.79c0-3.65.78-4.44,4.44-4.44h27.92V99H279c-3.66,0-4.44-.78-4.44-4.43V87.75c0-3.91.78-4.44,4.44-4.44H319.2c3.65,0,4.7.79,4.7,4.7V340.13c0,3.91-1,4.69-4.7,4.69H279C275.35,344.82,274.57,344,274.57,340.13Z"/></svg>