<svg width="2500" height="997" fill="none" xmlns="http://www.w3.org/2000/svg"><path d="M1944.93.973V497.46l-6.33 5.274-6.32 5.213-6.09 5.491-5.8 5.492-5.55 5.492-5.52 5.74-5.28 5.771-5.27 5.74V.973H1343.7V453.03h-45.92V.941H742.715v452.803h-45.919V.973H141.73V517.1L0 985.075h124.541L187.09 777.91h17.965l103.474 207.165h150.448L358.668 777.91h227.518l-63.077 207.165h135.927l62.302-206.637h30.095v-.528h302.977l-60.193 206.637h137.263l58.33-206.637h61.74l1.61 206.637h115.08l132.24-206.637h86.56l-44.86 206.637h135.12l44.06-206.637h78.15l-.53 11.759.28 12.039.53 11.479 1.06 11.542.77 5.492.81 5.492 1.05 5.491 1.06 5.492 1.3 5.492 1.34 5.243 1.55 5.213 1.61 5.243 1.86 5.244 1.83 4.964 2.11 4.964 2.11 4.716 2.39 4.965 2.36 4.716 2.64 4.437 2.63 4.716 2.92 4.436 3.17 4.189 3.16 4.437 3.41 3.94 3.45 4.189 3.44 3.909 3.97 3.94 3.94 3.662 5.03 4.157 4.99 4.189 5.28 3.94 5.58 3.661 5.53 3.661 5.55 3.413 5.8 2.855 6.05 3.133 5.8 2.638 6.09 2.606 6.08 2.358 6.33 2.358 6.33 2.079 6.32 1.861 6.33 1.8 6.36 1.551 12.66 2.917 12.94 2.079 12.66 1.861 12.66 1.552 12.41 1.023 12.16.528 11.85.527h11.36l15.33-.248 15.29-.248 15.58-.776 15.57-.775 15.58-1.335 15.54-1.303 15.58-1.551 15.57-1.862 15.83-2.078 15.85-2.359 15.83-2.606 15.82-2.606 15.85-2.885 15.83-3.134 15.85-3.134 16.11-3.661 46.97-187.587H2500V1.004h-555.07V.973ZM193.172 758.55l.806-2.886 1.862 2.886h-2.668Zm483.549-278.34-7.911 26.435-73.906 243.248-2.916 8.657H349.174l-18.741-39.777 261.555-264.967H423.886L219.327 672.234l66.242-218.428H161.525V20.582h515.196V480.21Zm143.343 205.613-3.971.248-3.723.249-3.941.248h-14.52l-4.499.248h-4.22l-32.981-.248 15.296-55.972 7.136-27.738 17.437-65.156h11.325l5.554-.217h30.871l15.576.248 14.272.497 6.329.248 6.051.527 5.801.807 5.275.776 4.778.775 4.468 1.303 4.22 1.335 3.723 1.551 3.164 1.551 2.886 2.11 2.637 2.11 2.11 2.606 1.334 2.11 1.055 2.079 1.055 2.358.776 2.606.527 2.885.31 2.886v6.516l-.31 3.692-.248 3.661-.776 4.188-.807 4.158-2.358 8.905-2.916 9.928-2.885 8.377-3.196 8.129-3.413 7.571-3.723 7.074-1.831 3.102-1.862 3.165-2.109 3.134-2.358 2.885-2.389 2.886-2.358 2.606-2.638 2.606-2.668 2.358-2.885 2.11-2.917 2.358-3.165 1.831-3.413 2.078-3.444 1.862-3.723 1.551-3.661 1.552-3.971 1.303-4.22 1.582-4.468 1.055-4.778 1.024-4.747 1.055-5.274.776-5.275.806-5.554.528-5.802.527.031.031Zm375.296 72.727 54.11-190.969 2.11 190.969h-56.22ZM1277.71 453h-128.79l-88.71 305.55H923.507l6.329-2.638 6.33-2.606 6.081-2.606 6.081-2.886 5.802-2.885 5.523-3.413 5.554-3.103 5.274-3.413 5.275-3.661 5.026-3.661 4.747-3.661 4.747-4.189 4.499-3.909 4.22-4.468 4.215-4.188 3.98-4.685 3.94-4.468 3.72-4.965 3.41-4.716 3.42-5.212 3.16-5.244 2.92-5.243 2.91-5.492 2.64-5.74 2.64-5.771 2.36-5.74 2.11-6.019 2.14-6.267 1.55-6.298 1.86-6.268 1.33-6.826 1.31-6.515 1.86-10.456 1.55-9.929 1.09-9.432.77-8.905.31-8.873-.31-8.129-.25-8.098-1.05-7.602-1.06-7.043-1.86-7.074-1.83-6.515-2.64-6.299-2.91-6.019-3.17-6.019-3.69-5.492-4.22-5.243-3.41-3.661-3.45-3.661-3.72-3.103-3.94-2.917-4.22-2.854-4.22-2.637-4.5-2.327-4.466-2.11-4.747-2.079-4.747-1.582-5.026-1.552-5.027-1.582-5.274-1.303-5.275-1.055-5.274-1.055-5.554-.775-11.356-1.552-11.325-.807-11.635-.775-11.852-.248H762.51V20.613h515.2V453.03 453Zm313.02 305.55h-77.35l117.19-183.119-39.84 183.119Zm287.93-296.925-.25 105.956-6.61 9.153-6.05 9.432-6.08 9.401-5.55 9.432-5.28 9.401-5.27 9.68-4.5 9.432-4.47 9.401-4.22 9.153-3.72 9.432-3.69 9.153-3.17 8.905-2.88 8.873-2.64 8.626-2.39 8.377-2.11 8.377-1.33 5.492-1.31 5.771-1.33 5.492-1.05 5.739-1.06 5.492-.77 5.492-.81 5.492-.53 5.771h-75.73l64.65-304.775-217.99-.248-195.06 305.023h-14.27V20.613h515.47v441.043-.031Zm297.24 421.683-10.86 1.861-11.08 1.552-11.08 1.551-10.82 1.334-10.8 1.024-10.86.807-10.55.527h-17.41l-6.85-.248-6.61-.528-6.58-.806-6.36-1.024-6.05-1.055-6.08-1.303-5.8-1.552-5.56-1.861-5.52-1.831-5.27-2.358-5.03-2.358-5.03-2.854-4.74-2.886-4.5-3.133-4.22-3.134-4.22-3.661-3.69-3.941-3.7-3.909-3.41-4.468-3.19-4.437-2.89-4.964-2.64-4.964-2.63-5.244-2.11-5.491-1.87-6.02-1.58-6.019-1.58-6.267-1.06-6.516-.8-6.825-.53-7.075-.28-7.322h240.21l-26.41 105.429.04-.031Zm304.55-124.758h-129.84l21.37-85.293h-260.25l-21.37 85.293h-125.88v-17.53l1.55-7.323 1.34-7.322 1.58-7.85 1.58-7.849 2.39-8.626 2.36-8.656 2.64-8.626 2.91-8.377 3.17-8.377 3.41-8.377 3.72-8.067 3.69-8.129 4.22-8.098 4.22-7.602 4.5-7.849 5-7.323 5.02-7.322 5-7.074 5.58-6.795 5.78-6.515 6.08-6.299 6.08-5.74 6.58-5.771 6.6-5.491 6.86-4.965 7.39-4.716 7.38-4.188 7.66-3.91 7.92-3.661 8.19-3.133 8.44-2.638 8.71-2.078 9-1.862 9.22-1.272 9.49-.807 9.77-.248 7.67.248 7.63.528 7.66 1.055 7.39 1.551 3.72 1.055 3.41 1.055 3.42 1.055 3.19 1.551 3.17 1.303 3.16 1.862 2.89 1.799 2.91 1.862 2.64 2.327 2.64 2.358 2.39 2.358 2.36 2.885 2.11 2.607 1.86 3.133 1.58 3.413 1.58 3.413 1.34 3.63 1.05 3.94.78 3.91.8 4.468.28 4.436v9.681l-.52 5.243h155.19l2.36-10.735 2.11-12.286 1.05-6.547.53-7.074.53-7.043v-7.322l-.25-7.602-.78-7.85-.8-3.661-.53-3.909-1.06-3.941-1.05-3.909-1.3-4.189-1.34-3.94-1.55-3.909-1.86-3.941-1.86-3.909-2.39-3.94-2.36-3.91-2.64-3.909-3.16-4.189-3.41-3.94-3.48-3.909-3.69-3.661-3.94-3.662-4.22-3.413-4.22-3.133-4.5-3.134-4.75-3.134-4.74-2.637-5.03-2.606-5.27-2.606-5.28-2.358-5.55-2.358-5.8-2.11-5.81-2.079-5.8-1.862-6.33-1.551-6.08-1.551-6.61-1.583-6.58-1.303-6.6-1.303-6.86-1.055-7.14-.775-14.52-1.583-14.77-1.303-15.57-.527-15.83-.249-11.88.249-12.41.248-12.94.776-13.46 1.054-13.96 1.552-14.28 1.861-14.52 2.327-14.77 3.165-7.38 1.551-7.66 1.862-7.39 2.079-7.66 2.079-7.67 2.358-7.63 2.606-7.66 2.637-7.39 2.855-7.66 3.164-7.66 3.413-7.39 3.382-7.66 3.661-7.39 3.91-7.38 4.188-7.38 4.189-7.39 4.716V20.582h515.97v737.937l-.03.031Z" fill="#9CA3AF"/></svg>