<svg width="2500" height="759" viewBox="0 0 2500 759" fill="none" xmlns="http://www.w3.org/2000/svg">
<path d="M0 536.859V11.1626H92.3406V536.857H0V536.861V536.859ZM328.727 155.485C210.326 155.485 128.395 246.518 128.395 350.715C128.395 467.001 217.53 547.116 329.647 547.116C436.052 547.116 528.389 468.482 528.389 350.464C528.389 251.226 451.873 155.487 328.727 155.487V155.485ZM327.637 244.571C389.601 244.571 435.205 292.799 435.205 351.049C435.205 412.812 384.921 457.863 329.308 457.863C263.598 457.863 222.242 405.783 222.242 351.216C222.244 291.407 268.935 244.569 327.637 244.569V244.571ZM760.403 155.485C642.006 155.485 560.072 246.518 560.072 350.715C560.072 467.001 649.207 547.116 761.324 547.116C867.729 547.116 960.065 468.482 960.065 350.464C960.065 280.968 929.97 250.134 929.97 250.134L955.567 241.355V166.41H824.411C824.411 166.41 795.975 155.485 760.403 155.485V155.485ZM759.316 244.571C821.276 244.571 866.884 292.799 866.884 351.049C866.884 412.812 816.599 457.863 760.988 457.863C695.277 457.863 653.923 405.783 653.923 351.216C653.925 291.407 700.616 244.569 759.316 244.569V244.571ZM866.231 562.557C866.231 624.317 815.95 669.707 760.337 669.707C694.624 669.707 653.103 617.119 653.103 562.557H559.421C559.421 678.845 648.553 758.955 760.673 758.955C867.076 758.955 959.414 680.568 959.414 562.557H866.231V562.557ZM997.052 536.859V166.41H1089.4V536.859H997.052ZM1179.07 536.859V249.388H1129.55V166.41H1179.07V52.6517H1271.41V166.41H1322.27V249.388H1271.41V536.859H1179.07ZM1104.18 61.1958C1104.18 94.9675 1076.8 122.346 1043.03 122.346C1009.26 122.346 981.882 94.9658 981.882 61.1958C981.882 27.4224 1009.26 0.0437012 1043.03 0.0437012C1076.81 0.0437012 1104.18 27.4224 1104.18 61.1958ZM1529.88 155.235C1410.92 155.235 1334.23 246.312 1334.23 354.061C1334.23 465.406 1411.17 547.367 1531.8 547.367C1644.32 547.367 1699.68 477.101 1699.68 477.101L1637.95 415.286C1637.95 415.286 1591.34 465.56 1532.97 465.56C1484.32 465.56 1445.41 438.402 1431.84 388.605H1719.58V363.179C1719.59 261.715 1660.86 155.235 1529.88 155.235V155.235ZM1526.95 236.54C1569.49 236.54 1612.99 259.297 1622.72 313.66H1429.33C1436.99 275.446 1470.42 236.54 1526.95 236.54ZM1950.56 547.416C1831.27 547.416 1749.98 456.554 1749.98 349.426C1749.98 238.868 1841.85 155.166 1950.18 155.166C2054.9 155.166 2108.51 229.094 2108.51 229.094L2044.09 293.223C2044.09 293.223 2006.78 245.008 1949.74 245.008C1886.53 245.008 1843.31 293.364 1843.31 350.843C1843.31 411.533 1889.29 458.101 1949.03 458.101C2006.98 458.101 2044 409.966 2044 409.966L2109.07 474.057C2109.07 474.057 2055.98 547.418 1950.57 547.418H1950.56V547.414V547.416ZM2142.66 537.127V9.82628H2235.01V203.56C2235.01 203.56 2270.37 155.166 2347.28 155.166C2443.98 155.166 2500 227.046 2500 318.98V537.126H2407.65V332.937C2407.65 271.174 2369.2 245.548 2326.6 245.548C2278.07 245.548 2235.01 273.17 2235.01 337.713V537.127H2142.66V537.127Z" fill="#9CA3AF"/>
</svg>
