<svg width="2498" height="413" fill="none" xmlns="http://www.w3.org/2000/svg"><path d="M1126.05 212.73v-.942c0-53.204-39.73-96.824-91.95-96.824-53.651 0-90.568 43.62-90.568 95.813v1.011c0 53.149 39.32 96.305 91.508 96.305 53.64 0 91.01-43.157 91.01-95.363Zm-220.376 0v-.942c0-69.955 54.609-129.357 129.366-129.357 74.27 0 128.87 58.446 128.87 128.346v1.011c0 69.956-55.06 129.344-129.81 129.344-74.28 0-128.426-58.461-128.426-128.402Zm497.786-12.929v-.984c0-50.773-44.1-83.825-91.01-83.825-46.96 0-85.79 32.56-85.79 83.376v.956c0 49.817 39.84 84.289 85.79 84.289 46.91 0 91.01-33.966 91.01-83.812Zm-203.17 178.711 16.78-28.766c28.28 20.629 59.9 31.661 95.38 31.661 54.58 0 90.02-30.214 90.02-88.196v-29.202c-21.54 28.738-51.71 52.235-97.19 52.235-59.44 0-116.48-44.59-116.48-115.965v-.955c0-72.345 57.52-116.879 116.5-116.879 46.46 0 76.63 22.962 96.75 49.775V87.673h36.88v204.596c0 38.323-11.53 67.553-31.62 87.663-22.04 22.035-55.09 33.052-94.37 33.052-41.19 0-79.54-11.467-112.63-34.472h-.02Zm290.08-290.84h36.91V335.37h-36.91V87.673ZM1487.98.012h42.16v40.711h-42.16V.011ZM898.155 300.42H737.25V.025h-37.803v335.359H928.51a159.011 159.011 0 0 1-30.382-34.964h.027Zm759.125 5.748c-24.93 0-41.68-11.032-41.68-41.218V120.262h73.38a155.907 155.907 0 0 1 26.99-32.575H1615.6V-.003h-36.85v269.731c0 50.352 30.16 69.97 69.92 69.97 20.81 0 38.37-5.256 54.69-16.976a160.878 160.878 0 0 1-16.22-22.428 79.656 79.656 0 0 1-29.86 5.874" fill="#9CA3AF"/><path d="M1894.93 197.876c-3.88-45.054-29.72-84.29-79.12-84.29-43.09 0-75.67 35.891-80.45 84.29h159.57Zm-196.94 14.361v-.955c0-71.375 50.31-128.852 118.79-128.852 73.29 0 115.49 58.433 115.49 130.777 0 4.792 0 7.673-.51 11.959h-196.4c5.31 53.696 43.14 83.868 87.21 83.868 33.99 0 57.97-13.884 78.08-34.992l23 20.616c-24.91 27.783-55.08 46.459-102.04 46.459-68.05 0-123.62-52.193-123.62-128.865v-.015Zm259.83.492v-.941c0-69.956 54.66-129.358 126.96-129.358 47 0 76.23 19.633 99.2 44.057l-24.45 25.857c-19.6-20.588-41.69-37.381-75.22-37.381-50.31 0-88.61 42.651-88.61 95.813v1.012c0 53.626 39.28 96.305 91.04 96.305 31.59 0 56.03-15.824 75.66-36.904l23.49 22.022c-24.88 27.782-54.61 47.92-101.11 47.92-72.28 0-126.96-58.952-126.96-128.402ZM2216.26.01h36.91v130.833c16.3-26.855 42.16-48.384 84.74-48.384 59.93 0 94.92 40.219 94.92 99.171v153.781h-36.9V190.736c0-46.023-24.96-74.761-68.51-74.761-42.66 0-74.25 31.141-74.25 77.572v141.864h-36.91V.01Zm258.28 111.861c3.23 0 5.12-1.7 5.12-4.075 0-2.712-1.87-4.103-5.12-4.103h-6.08v8.193h6.08v-.015Zm-10.89-12.45h11.31c5.54 0 9.63 2.698 9.63 7.94 0 4.075-2.43 6.633-5.82 7.645l6.66 9.457h-5.77l-5.98-8.6h-5.22v8.6h-4.81V99.421Zm31.41 13.027v-.169a21.628 21.628 0 0 0-6.29-15.535 21.651 21.651 0 0 0-7.1-4.755 21.664 21.664 0 0 0-8.39-1.632c-2.89.009-5.74.588-8.41 1.705a21.911 21.911 0 0 0-7.1 4.801 21.782 21.782 0 0 0-4.71 7.162 21.907 21.907 0 0 0-1.61 8.423v.126c0 12.072 9.35 21.965 21.84 21.965 12.31 0 21.77-10.076 21.77-22.091Zm-46.43.126v-.14c0-13.42 10.9-24.747 24.66-24.747 13.84 0 24.59 11.2 24.59 24.592v.169a24.734 24.734 0 0 1-7.18 17.466 24.712 24.712 0 0 1-17.41 7.309c-13.91 0-24.66-11.158-24.66-24.649ZM441.66 224.703c20.489 9.218 48.117 9.555 67.777 1.405 21.08-8.067 29.287-19.042 15.627-25.015-15.247-6.042-61.313-8.445-94.365-4.328-25.267 4.975-14.995 18.087 10.961 27.938Zm-48.609 129.61c23.018 28.302 58.347 55.214 76.377 57.054 13.8-2.276 6.465-25.098-11.171-45.812-15.852-18.859-42.595-35.765-62.48-41.203-20.292-6.619-23.637 4.216-2.726 29.961Zm-.197-268.327c40.613-21.473 70.377-50.24 66.47-64.292-3.85-14.081-21.304-19.772-38.982-12.704-17.665 7.069-47.429 35.835-66.555 64.25-19.056 28.471-1.574 34.177 39.067 12.746ZM233.115 29.17c1.77-2.53 5.564-8.74 3.948-15.093C235.068 6.095 224.205 1.936 215.057.77c-15.599-2.023-28.289.422-39.25 2.769-28.907 6.211-51.532 17.257-67.314 27.543a241.884 241.884 0 0 0-36.397 29.582C30.795 101.487-9.903 169.32 2.323 248.55c7.041 47.359 31.9 82.252 53.205 108.166 27.965 32.392 72.372 62.198 111.496 55.27 18.044-3.527 31.97-18.353 38.561-30.453 25.211-46.669-16.301-107.322-28.331-131.395-15.542-29.342-22.723-59.205-9.331-104.989 12.521-42.721 51.813-96.88 65.205-115.979" fill="#9CA3AF"/><path d="M308.888 238.278c-21.402 0-35.385-7.42-35.385-21.628 0-11.804 21.656-39.854 43.072-39.854 15.796 0 31.324 18.789 31.324 30.031 0 14.376-15.528 31.451-39.011 31.451Zm9.978 33.881c-6.563 7.87-17.117 13.772-25.52 13.772-11.299 0-19.717-6.31-22.569-15.402-.759-2.248-.998-4.68-1.153-7.251-.112-2.726.815-1.532 8.896 1.461 5.509 2.08 12.423 4.005 19.576 4.005 2.866 0 5.649-.323 8.291-.773 4.609-.871 19.027-3.583 12.479 4.188Zm-67.819-56.661c-2.966 12.17-5.355 6.886-6.732 3.415-2.108-5.327-2.909-10.962-2.909-15.979 0-17.833 13.589-32.954 39.166-32.954 5.874 0 8.136 1.827 2.065 4.694-2.037.984-4.328 2.459-6.267 3.654-12.901 8.052-21.445 21.388-25.323 37.17Zm144.759-22.71c-2.179-32.869-48.708-56.071-107.435-54.525-46.361 1.265-98.455 29.413-98.413 64.671.056 38.66 29.933 54.287 41.583 58.896 2.825 1.153 3.822.787 5.579 5.959 3.386 9.837 12.929 33.825 44.196 33.755 42.272-.099 117.722-60.371 114.49-108.756" fill="#9CA3AF"/></svg>