<svg width="2500" height="795" fill="none" xmlns="http://www.w3.org/2000/svg"><path d="m405.558 720.833-36.117-93.054 349.071 17.949-15.674 148.93-297.28-73.825ZM489.199 0 .715 230.754l75.547 347.719h99.64l-17.208-248.736L173.981 325l59.912 253.473h103.516l-3.832-302.983 15.293-4.743 52.36 307.726h109.599l25.854-365.976 15.282-4.748 27.124 370.724h144.927l51.013-508.927L489.199 0ZM1997.78 756.978l-1.01-29.012 100.28-1.181.93-31.618-102.4-1.27-1.02-29.371 134.9-3.163 1.1-34.682h-181.98L1943.15 795h190.78l-1.34-34.754-134.81-3.268Zm-907.45-61.889-2.14 31.497 50.62 1.689-.64 31.971-105.94-3.108 4.61-92.336 145.67-3.368-2.11-34.753H992.252L975.38 795h214.37l-5.55-101.539-93.87 1.628Zm1327.88 13.03-139.05-23.508.61-18.219 133.01-4.963-3.36-34.748h-170.98l-8.74 87.24 141.35 24.579.64 16.032-147.08 5.714-3.6 34.754h205.84l-8.64-86.881ZM1850.84 795l-16.88-168.319h-48.44l-69.58 80.234-69.59-80.234h-48.44L1581.04 795h56.91l5.44-109.197 72.55 74.443 72.54-74.443L1793.94 795h56.9ZM1611.69 10.285h-113.88l-10.37 520.532h137.6l-13.35-520.532Zm352.88 407.311-125.66 4.052-4.17-306.13 131.43 3.975-1.6 298.103ZM2074.7 10.517h-355.06l-13.82 520.3h394.09l-25.21-520.3Zm424.58 113.685L2486.6 10.285h-349.82l2.95 101.473 111.89 3.876 11.47 415.189h137.87l-41.24-411.452 139.56 4.831Zm-1352.43-7.431 109.74-3.671 12.51 103.709-126.67 59.829 4.42-159.867Zm128.21 414.046h149.45l-97.4-233.619 77.73-42.467-53.1-244.446H970.223l-12.554 112.808 85.341-2.849-41.15 410.573h133.56l3.61-130.877 96.24-52.575 39.79 183.452Zm72.69 188.321 11.57-55.07 55.56-2.512 11.61 55.264-78.74 2.318ZM1442.93 795h57.61l-45.58-168.33h-135.19L1274.19 795h57.61l8.93-42.466 93.53 1.209 8.67 41.257Z" fill="#9CA3AF"/></svg>