<svg width="1727" height="366" fill="none" xmlns="http://www.w3.org/2000/svg"><path d="M161.88 309V56.88c0-3.91.78-4.69 4.69-4.69h39.93c3.92 0 4.7.52 4.7 4.43v6.79c0 3.65-.78 4.44-4.7 4.44h-27.66v229.92h27.66c3.92 0 4.7.79 4.7 4.44V309c0 3.91-.78 4.69-4.7 4.69h-39.93c-3.91 0-4.69-.78-4.69-4.69ZM224.51 218.43c-1.3-3.13-.52-5.22 2.87-6.26l6.79-2.35c3.13-1 4.7-.52 6.26 2.87 6 16.45 19.57 22.71 39.93 22.71 25.06 0 36.8-8.61 36.8-23.75 0-18.53-15.14-21.66-37.84-24-26.32-2.65-52.72-6.28-52.72-39.42 0-24 17.22-39.15 51.41-39.15 30 0 45.68 11.22 53.24 28.45 1.83 3.39.79 5.48-2.34 6.78l-6.53 2.87c-3.65 1.31-4.7.79-6.52-2.34-5.48-12-14.88-20.1-37.59-20.1-23 0-34.19 8.09-34.19 23 0 20.62 16.45 22.44 39.41 24.53 28.45 2.61 50.64 8.61 50.64 38.63 0 24.27-17.23 39.93-53.51 39.93-28.44-.03-47.5-9.95-56.11-32.4ZM347.43 309v-6.79c0-3.65.79-4.44 4.44-4.44h27.92V67.85h-27.92c-3.65 0-4.44-.79-4.44-4.44v-6.79c0-3.91.79-4.43 4.44-4.43h40.19c3.65 0 4.7.78 4.7 4.69V309c0 3.91-1.05 4.69-4.7 4.69h-40.19c-3.65 0-4.44-.78-4.44-4.69ZM434.08 203v-45.9c0-29.75 21.66-48 57.15-48 36 0 57.42 18.27 57.42 48V203c0 29.75-21.4 47.76-57.42 47.76-35.49.04-57.15-17.97-57.15-47.76Zm97.08 0v-46.2c0-19.83-15.4-31.84-39.93-31.84-24.27 0-39.67 12-39.67 31.84V203c0 19.83 15.4 32.1 39.67 32.1 24.53.04 39.93-12.23 39.93-32.1ZM584.66 199.9v-82.21c0-3.65 1-4.69 4.7-4.69h8.09c3.39 0 4.7 1 4.7 4.69v81.43c0 23.49 11.22 35.76 36.53 35.76 14.88 0 26.1-2.61 33.93-5.48 4.18-1.83 4.7-4.18 4.7-7.57V117.69c0-3.65 1.3-4.69 4.7-4.69h8.09c3.39 0 4.69 1 4.69 4.69v110.14c0 8.09-1.82 11-9.65 14.35-10.18 4.18-25.06 8.62-48.81 8.62-35.75 0-51.67-18.8-51.67-50.9ZM735.24 242.44v-107c0-8.09 2.09-11.22 9.92-14.35 9.66-3.92 24.53-8.09 47.24-8.09h8.09c3.39 0 4.7 1 4.7 4.69v6.53c0 3.39-1.31 4.7-4.7 4.7h-8.61c-14.88 0-26.62 2.61-34.45 5.48-4.18 1.82-4.7 3.91-4.7 7v101c0 3.66-1 4.7-4.7 4.7h-8.09c-3.39.04-4.7-1-4.7-4.66ZM821.11 199.38V160.5c0-31.58 18.53-51.42 56.89-51.42 31.85 0 48 13.83 54.55 35.23 1.31 3.92 0 5.75-3.13 6.79l-6.79 2.35c-3.65 1.3-5.22.26-6.52-3.13-5.48-17.23-16.18-25.58-38.63-25.58-26.1 0-38.88 13.31-38.88 35.23v39.93c0 21.93 13.31 35.5 38.88 35.5 21.66 0 33.67-9.14 38.89-26.88 1.57-3.66 2.87-4.18 6.79-3.13l6.78 2.08c3.39 1.31 4.7 2.87 3.13 6.79C925.24 238 908 250.8 877 250.8c-37.62 0-55.89-19.58-55.89-51.42ZM961.52 198.08v-33.93c0-34.45 19.83-55.07 57.67-55.07 39.15 0 57.94 22.71 57.94 54v14.36c0 4.44-2.08 7.31-7.83 7.31H979v15.15c0 22.19 13.31 35.76 39.15 35.76 21.4 0 33.67-8.61 41-21.66 2.34-3.13 4.17-3.66 7.56-1.83l5.48 2.87c3.4 1.83 3.92 4.18 1.83 7.57-9.13 16.44-25.84 28.19-56.11 28.19-38.91 0-56.39-21.4-56.39-52.72Zm98.13-26.88v-9.14c0-23.23-13.57-37.84-40.46-37.84-26.62 0-40.19 14.61-40.19 37.84v9.14h80.65ZM1104 210.34c0-30 16.44-40.19 57.42-40.19 11.45.03 22.87.902 34.19 2.61V160.5c0-20.36-6.79-35.76-35.23-35.76-18.27 0-29.76 6.79-36.8 18.79-1.83 3.13-2.87 3.65-6.27 2.35l-6.26-2.61c-3.39-1.3-4.44-3.13-2.61-6.79 9.13-17.22 26.1-27.4 52.46-27.4 41.49 0 52.19 23.49 52.19 51.68v68.38c0 9.13-2.08 11.74-9.39 14.87-9.66 4.18-23.49 6.79-43.32 6.79-45.38 0-56.38-14.36-56.38-40.46Zm86.66 21.66c3.91-1.57 5-2.61 5-7.57v-37.84c-5.22-.52-20.88-2.34-36-2.34-28.44 0-37.84 7.82-37.84 25.83 0 16.44 6.52 26.1 37.32 26.1 14.56 0 24.21-1.3 31.52-4.18ZM1261.38 243c-8.35-3.66-9.91-5.74-9.91-14.36V58.71c0-3.65 1.3-4.7 4.69-4.7h8.09c3.66 0 4.7 1.05 4.7 4.7v58.46c7-2.35 22.45-8.09 41.5-8.09 35.75 0 51.41 19 51.41 51.15v37.06c0 34.72-18 53.51-56.11 53.51-19.57 0-34.97-3.66-44.37-7.8Zm83-45.94v-36.3c0-22.71-11.75-35.76-36.28-35.76-17.75 0-32.88 6-39.15 8.61v89.52c0 3.92.52 4.7 5 6.53 7 2.87 17.75 5.22 30.54 5.22 27.36 0 39.89-12.53 39.89-37.88v.06ZM1399.7 242.44V58.71c0-3.65 1-4.7 4.7-4.7h8.09c3.39 0 4.7 1.05 4.7 4.7v183.73c0 3.66-1.31 4.7-4.7 4.7h-8.09c-3.65 0-4.7-1.04-4.7-4.7ZM1454.5 198.08v-33.93c0-34.45 19.84-55.07 57.68-55.07 39.15 0 57.94 22.71 57.94 54v14.36c0 4.44-2.09 7.31-7.83 7.31H1472v15.15c0 22.19 13.31 35.76 39.15 35.76 21.4 0 33.67-8.61 41-21.66 2.35-3.13 4.18-3.66 7.57-1.83l5.48 2.87c3.4 1.83 3.92 4.18 1.83 7.57-9.13 16.44-25.84 28.19-56.11 28.19-38.92 0-56.42-21.4-56.42-52.72Zm98.14-26.88v-9.14c0-23.23-13.58-37.84-40.46-37.84-26.62 0-40.19 14.61-40.19 37.84v9.14h80.65Z" fill="#1E90FF"/></svg>