<svg width="260" height="88" viewBox="0 0 260 88" fill="none" xmlns="http://www.w3.org/2000/svg">
<path d="M18.8 0.766178C13.8 2.36618 9.8 4.96618 7.1 8.56618C4.7 11.7662 4.3 13.0662 4.3 18.9662C4.3 24.2662 4.8 26.3662 6.4 28.5662C9.8 33.1662 14.4 35.6662 22.6 37.3662C35 39.9662 38.7 41.6662 40.5 45.3662C42.5 49.6662 41.2 53.6662 36.8 56.5662C32.6 59.4662 22.5 59.7662 17.1 57.1662C13.4 55.4662 9.8 50.6662 9.8 47.5662C9.8 46.1662 8.9 45.8662 4.9 45.8662H0L0.9 49.9662C3.1 59.4662 7.7 63.9662 18.1 66.4662C26.3 68.5662 33.7 67.7662 41 64.0662C50.1 59.4662 53.3 49.6662 48.8 40.4662C46.1 34.7662 40.6 31.4662 30 29.3662C16.5 26.5662 12.8 24.1662 12.8 17.8662C12.8 14.7662 17.6 9.96618 22.1 8.76618C30.5 6.56618 38.6 9.76617 41.4 16.5662C42.7 19.5662 43.2 19.8662 47.3 19.8662C52.5 19.8662 52.9 18.8662 49.9 12.2662C47.7 7.36618 42.1 2.56618 36.9 0.966178C32.6 -0.233822 22.7 -0.333822 18.8 0.766178Z" fill="#9CA3AF"/>
<path d="M227.8 4.36621C227.8 7.66621 228 7.86621 231.3 7.86621H234.8V22.8662V37.8662H237.8H240.8V19.3662V0.86621H234.3H227.8V4.36621Z" fill="#9CA3AF"/>
<path d="M246 4.06621C246.3 6.96621 246.7 7.36621 249.6 7.66621L252.8 7.96621V22.9662V37.8662H256.3H259.8V19.3662V0.86621H252.7H245.7L246 4.06621Z" fill="#9CA3AF"/>
<path d="M64.8 11.8662V19.8662H59.8H54.8V23.3662V26.8662H59.8H64.8V42.2662C64.8 51.0662 65.3 58.9662 65.9 60.8662C67.4 65.0662 71.7 66.8662 80.3 66.8662H86.8V62.8662V58.8662H81.5C78.6 58.8662 75.7 58.3662 75 57.6662C74.2 56.8662 73.8 51.8662 73.8 41.6662V26.8662H79.8H85.8V23.3662V19.8662H79.8H73.8V11.8662V3.86621H69.3H64.8V11.8662Z" fill="#9CA3AF"/>
<path d="M99.1 20.9662C94.9 23.0662 90.8 28.0662 90.8 31.2662C90.8 32.4662 91.8 32.8662 95.3 32.8662C98.7 32.8662 99.8 32.4662 99.8 31.3662C99.8 29.2662 105.7 25.8662 109.3 25.8662C114.1 25.8662 118.6 29.1662 119.4 33.3662C119.7 35.3662 119.8 37.1662 119.5 37.4662C119.3 37.7662 114.9 38.3662 109.9 38.8662C95 40.4662 89.8 44.4662 89.8 54.3662C89.8 58.0662 90.4 59.4662 93.1 62.3662C99.4 69.0662 109.9 69.2662 117.3 62.7662L120.8 59.6662V63.2662C120.8 66.7662 120.9 66.8662 124.8 66.8662H128.8V49.9662C128.8 40.3662 128.3 31.7662 127.7 30.1662C126.3 26.3662 122 21.8662 118.1 20.2662C113.2 18.1662 104.1 18.4662 99.1 20.9662ZM119.8 47.8662C119.8 49.5662 119.1 52.2662 118.3 53.7662C115.6 59.0662 105.8 61.6662 101 58.2662C98.2 56.2662 98 50.8662 100.7 48.4662C102.6 46.7662 109.4 45.2662 116.6 44.9662C119.5 44.8662 119.8 45.1662 119.8 47.8662Z" fill="#9CA3AF"/>
<path d="M146.3 20.5661C138.1 24.8661 134.5 31.6661 134.5 42.4661C134.5 55.4661 141 64.3661 151.9 66.3661C156.6 67.2661 162.9 65.4661 166.8 62.2661L169.8 59.6661L169.7 64.0661C169.6 74.2661 164.6 79.8661 155.6 79.8661C149.7 79.8661 144.4 77.7661 142.8 74.9661C141.4 72.2661 133.8 71.8661 133.8 74.4661C133.8 79.6661 140.8 85.1661 149.6 86.8661C160.7 88.9661 171.7 84.6661 176 76.5661C178.2 72.5661 178.3 71.1661 178.6 46.0661L178.9 19.8661H174.4C170.1 19.8661 169.8 20.0661 169.8 22.5661C169.8 24.9661 169.7 25.0661 168.1 23.6661C162.6 18.8661 152.3 17.3661 146.3 20.5661ZM162.5 27.8661C171 32.9661 172 47.8661 164.3 55.5661C161.5 58.3661 160.3 58.8661 156.1 58.8661C148.4 58.8661 144.7 55.0661 143.3 45.7661C141.2 31.7661 152.1 21.4661 162.5 27.8661Z" fill="#9CA3AF"/>
<path d="M197.3 20.6662C188.8 24.7662 184.8 31.8662 184.8 42.6662C184.8 50.5662 186 54.9662 189.5 59.6662C197.2 70.0662 217.3 69.8662 223.8 59.2662C227 54.1662 226.5 52.8662 221.3 52.8662C218.1 52.8662 216.8 53.2662 216.8 54.2662C216.8 56.8662 211.8 59.8662 207.4 59.8662C200.3 59.8662 195.5 55.6662 193.8 48.1662L193 44.8662L209.7 44.6662L226.3 44.3662L226.1 38.5662C225.9 31.4662 223.5 26.4662 218.5 22.4662C215.3 19.8662 213.7 19.3662 208 19.0662C203 18.8662 200.3 19.2662 197.3 20.6662ZM211.9 27.4662C215 28.9662 218.4 35.0662 217.3 36.8662C216.7 37.8662 193.8 38.2662 193.8 37.3662C193.8 34.8662 197.3 29.5662 200 27.8662C204 25.4662 207.8 25.3662 211.9 27.4662Z" fill="#9CA3AF"/>
</svg>
