<svg width="180" height="48" fill="none" xmlns="http://www.w3.org/2000/svg"><path d="M8.614.304c-2.688 1.11-4.546 4.844-4.546 9.155 0 .81-.042.982-.253.982-.817 0-1.788.725-2.576 1.899C.014 14.196-.042 14.645.014 21.794c.042 6.466.099 6.829 1.084 8.557.774 1.323 1.717 1.857 3.519 2.006l1.562.128v2.134c0 2.604.17 3.522.873 4.717.732 1.28 1.422 1.664 3.28 1.814l1.548.128.042 2.987c.042 3.159.155 3.735.774 3.735.183 0 1.126-1.26 2.562-3.414l2.266-3.415h5.7c6.306 0 6.644-.064 7.644-1.323.295-.363.69-1.152.872-1.75.282-.918.338-1.43.338-3.35v-2.263l1.563-.128c1.801-.15 2.744-.683 3.518-2.006.986-1.728 1.042-2.091 1.084-8.579.042-5.079.014-5.975-.197-7.042-.464-2.198-2.21-4.29-3.603-4.29-.211 0-.253-.17-.253-.981 0-3.436-1.352-6.957-3.224-8.408C29.586-.016 29.46-.016 19.058.005c-7.91 0-9.853.064-10.444.299Zm20.536 6.36c.564.597.83 1.344.915 2.624l.085 1.152h-22v-.874c0-1.516.633-2.903 1.478-3.244.155-.064 4.518-.086 9.712-.064 8.867.021 9.459.042 9.81.405ZM4.068 13.62c0 .982-.028 1.046-.422 1.153-.845.256-.915.725-.957 6.53-.029 3.265-.099 5.335-.198 5.506-.183.341-.703.363-.929.021-.126-.192-.168-1.75-.168-5.698 0-5.122.014-5.484.295-6.38.352-1.068 1.351-2.177 1.985-2.177.38 0 .394.042.394 1.045Zm31.557-.427c.422.406.732.94.943 1.558.282.897.296 1.26.296 6.381 0 3.948-.042 5.506-.17 5.698-.224.342-.745.32-.928-.021-.099-.171-.169-2.241-.197-5.506-.042-5.805-.113-6.274-.957-6.53-.394-.107-.422-.171-.422-1.153 0-1.003.014-1.045.394-1.045.21 0 .69.277 1.041.618Zm-3.547 7.15c0 9.517.408 8.899-6.052 8.835l-4.42-.065-.183-.746c-.098-.406-.436-2.028-.746-3.586-.62-3.009-.9-3.67-1.576-3.67-.634 0-.887.64-1.506 3.67-.324 1.558-.662 3.18-.76 3.586l-.184.746-4.42.065c-4.954.042-5.095.02-5.728-1.43-.324-.726-.324-.811-.324-7.405v-6.701h25.9v6.7Zm-12.33 8.899c.493 2.432.549 2.582 1 2.88.38.235 1.393.3 4.94.3h4.448l-.057 2.155c-.042 2.113-.042 2.155-.506 2.774l-.45.619H16.68l-1.338 2.027c-.732 1.11-1.35 2.028-1.379 2.028-.028 0-.042-.769-.042-1.686 0-2.39.028-2.37-2.534-2.37-1.267 0-2.238-.106-2.449-.234-.563-.384-.788-1.408-.788-3.478V32.42h4.434c3.532 0 4.546-.064 4.926-.298.45-.3.507-.449 1-2.881.295-1.43.576-2.583.619-2.583.042 0 .323 1.153.619 2.583Z" fill="#9CA3AF"/><path d="M11.725 15.776c-.69.234-1.422 1.003-1.774 1.878-.281.683-.324 1.13-.38 3.222-.056 2.732.085 3.713.648 4.738 1.154 2.07 3.293 1.856 4.335-.406.394-.853.422-1.088.464-3.2.07-2.69-.098-3.82-.704-4.867-.703-1.216-1.66-1.707-2.59-1.365Zm.929 1.814c.506.405.703.917.703 1.856 0 .896-.281 1.537-.83 1.878-.873.534-1.844-.427-1.844-1.814 0-.981.183-1.515.676-1.9.492-.404.788-.426 1.295-.02ZM25.35 15.776c-.746.256-1.422 1.11-1.788 2.22-.31.917-.352 1.344-.352 3.2 0 2.518.155 3.479.662 4.418 1.056 1.899 3.11 1.899 4.166 0 .563-1.003.69-2.006.634-4.61-.028-1.878-.099-2.518-.338-3.201-.507-1.473-1.886-2.412-2.984-2.027Zm.957 1.814c1.492 1.173.422 4.716-1.14 3.734-1.014-.64-1.084-2.945-.113-3.756.45-.384.76-.363 1.253.022ZM133.631 7.069c-.774.917-.774.917-.774 12.975 0 11.95 0 11.95.732 12.975.746 1.046 2.098.726 2.646-.64.282-.683.282-.96.254-12.506l-.042-11.823-.521-.725c-.451-.62-.634-.726-1.225-.726-.478 0-.788.128-1.07.47ZM155.027 7.069c-.774.918-.774.918-.774 12.975 0 11.95 0 11.95.732 12.975.464.64 1.196.811 1.844.406.534-.342 1.083-1.43 1.083-2.177 0-.342.113-.256.606.47 1.126 1.664 2.589 2.326 4.293 1.963 3.378-.726 5.489-5.72 4.954-11.759-.366-4.247-2.013-7.235-4.504-8.195-1.745-.661-3.786.192-4.842 2.092l-.493.853-.042-4.31-.042-4.311-.521-.726c-.45-.619-.633-.726-1.224-.726-.479 0-.789.128-1.07.47Zm6.756 11.29c.802.298 1.647 1.429 2.055 2.71.408 1.237.45 3.755.085 4.972-.563 1.899-1.591 2.987-2.844 2.987-1.266 0-2.252-.939-2.829-2.731-.408-1.26-.38-4.119.071-5.463.351-1.11.999-1.964 1.801-2.412.662-.341.887-.363 1.661-.064ZM62.82 8.755c-.887.384-1.31 1.664-1.324 3.948 0 1.045-.014 1.11-.422 1.237-.788.235-1.323 1.516-1.154 2.796.084.726.648 1.58 1.14 1.729l.408.128.057 5.59c.084 6.339.169 7.043 1.098 8.324.717.981 1.463 1.259 3.026 1.152 1.534-.107 2.195-.533 2.533-1.58.296-.96.183-1.77-.352-2.539-.337-.49-.577-.64-1.252-.704-1.366-.15-1.352-.107-1.352-5.57v-4.61l1.155-.106c1.041-.085 1.21-.17 1.548-.704.324-.491.394-.769.394-1.643 0-.875-.07-1.153-.394-1.644-.352-.533-.493-.597-1.576-.683l-1.197-.064V12.17c0-1.707-.267-2.753-.802-3.18-.422-.341-1.07-.448-1.534-.234ZM84.86 13.812c-3.35 1.323-5.306 6.445-4.63 12.122.788 6.594 5.883 9.987 10.007 6.658 1.098-.875 1.52-1.665 1.52-2.774 0-.64-.098-.982-.407-1.473-.55-.81-1.281-.832-2.041-.064-1.464 1.515-3.42 1.515-4.533.043-.464-.619-1.041-2.006-1.041-2.518 0-.15 1.266-.214 3.8-.214 3.955 0 4.293-.064 4.772-.939.858-1.558.056-6.167-1.492-8.536-1.056-1.643-2.844-2.71-4.462-2.668-.31 0-.986.171-1.492.363Zm3.07 4.802c.548.533 1.027 1.707 1.21 2.966l.084.598H86.48c-3.068 0-2.984.043-2.547-1.515.703-2.561 2.547-3.5 3.997-2.05ZM116.207 13.642c-.788.298-1.337.79-2.097 1.856-.479.683-.676.875-.676.619 0-.64-.422-1.622-.886-2.049-.578-.554-1.309-.533-1.901 0-.844.79-.872 1.067-.872 9.646 0 8.665.014 8.793.999 9.604.577.47.957.49 1.605.085.943-.598.971-.854 1.055-7.064.071-5.292.085-5.591.394-6.317.789-1.942 2.815-1.963 3.646-.042.225.512.267 1.259.324 6.146.084 6.189.126 6.573 1.041 7.234.591.427.943.427 1.563.043.929-.598.971-.875 1.055-6.957.071-4.951.099-5.527.366-6.274.394-1.174 1.042-1.665 2.055-1.558.62.043.901.192 1.183.597.703.982.76 1.473.76 6.958 0 4.417.028 5.185.253 5.825.282.854 1.042 1.708 1.534 1.708.577 0 1.295-.598 1.591-1.323.267-.662.281-1.067.281-7.043 0-5.591-.028-6.466-.267-7.618-.352-1.708-.971-2.86-1.943-3.586-.689-.512-.971-.576-2.083-.597-1.14 0-1.365.064-2.196.661-.52.385-1.196 1.046-1.52 1.473l-.591.81-.239-.511c-.394-.854-.915-1.515-1.534-1.942-.704-.47-2.154-.662-2.9-.384ZM51.347 14.154c-.45.256-.971.704-1.196.96-1.422 1.686-1.858 5.1-.958 7.448.521 1.323 1.535 2.24 3.632 3.265 2.322 1.131 2.843 1.814 2.238 2.945-.662 1.216-2.928.832-4.701-.81-.648-.598-1.281-.577-1.788.085-.844 1.066-.675 2.688.38 3.713 2.843 2.774 7.024 2.646 8.67-.256.873-1.558 1.169-4.29.648-6.018-.535-1.772-1.422-2.69-3.955-4.055-.816-.448-1.647-.982-1.858-1.216-.52-.555-.535-1.516-.042-2.006.52-.513 2.012-.3 3.096.448 1.183.81 1.844.79 2.35-.086.48-.81.536-2.048.114-2.838-.915-1.793-4.828-2.71-6.63-1.58ZM71.954 13.983c-.971.726-.957.598-1 9.369-.041 8.813-.027 8.877.944 9.859.549.576.957.619 1.633.192.914-.576 1.055-1.28 1.055-5.058 0-3.84.155-5.42.676-6.893.408-1.13 1.253-2.112 2.153-2.475 1.112-.47 1.675-1.857 1.394-3.436-.197-1.067-.704-1.707-1.464-1.835-.971-.171-1.689.64-2.407 2.71l-.267.747-.099-1.024c-.211-2.05-1.422-3.052-2.618-2.156ZM98.346 13.962c-1.464.448-2.196 1.024-2.436 1.9-.281 1.002-.14 1.92.395 2.603.478.597.746.619 2.702.085 2.351-.64 3.786.363 4.068 2.817.112.939.141.918-1.14.47-1.478-.534-3.674-.32-4.8.448-1.689 1.152-2.562 3.414-2.365 6.124.226 3.33 1.872 5.336 4.378 5.336 1.379-.022 2.238-.406 3.181-1.43.394-.427.732-.747.746-.704.014.042.098.32.197.64.338 1.216 1.464 1.75 2.336 1.13.958-.703 1-.98 1-7.468 0-4.845-.042-5.954-.254-6.957-.478-2.412-1.478-4.012-2.984-4.802-.943-.491-3.758-.598-5.025-.192Zm4.25 11.289c.479.235.493.277.493 1.366-.014 1.323-.324 2.049-1.182 2.795-.761.64-2.112.726-2.787.171-.915-.747-1.112-2.475-.423-3.692.606-1.067 2.449-1.366 3.899-.64ZM142.852 13.94c-1.956.62-2.533 1.28-2.533 2.903 0 .704.084 1.024.408 1.515.492.726.858.768 2.407.277 1.886-.597 3.547-.085 4.082 1.26.267.64.492 2.027.366 2.219-.029.064-.507-.043-1.056-.235-2.576-.896-5.152-.107-6.376 1.963-.634 1.068-.873 2.135-.887 3.884 0 1.921.352 3.18 1.21 4.354.901 1.216 1.802 1.686 3.28 1.665 1.365-.022 2.449-.555 3.266-1.622l.549-.726.14.662c.437 2.006 2.492 2.112 3.195.149.254-.683.268-1.174.226-6.616-.057-5.377-.085-5.975-.366-7.127-.535-2.198-1.352-3.436-2.787-4.226-1.056-.576-3.744-.725-5.124-.299Zm4.209 11.29c.478.234.507.32.549 1.216.056 1.238-.366 2.24-1.225 2.966-.802.662-2.139.726-2.843.107-.873-.79-1.014-2.796-.268-3.82.662-.896 2.45-1.131 3.787-.47ZM173.184 13.919c-.915.47-1.393.918-1.956 1.857-.873 1.472-1.211 3.35-.929 5.207.338 2.347 1.323 3.542 3.969 4.823 2.393 1.174 2.998 2.027 2.196 3.137-.718.981-2.182.747-4.068-.598-1.013-.725-1.323-.853-1.731-.747-1.056.3-1.478 2.476-.676 3.586 1.309 1.835 3.941 2.902 6.095 2.496 2.365-.448 3.73-2.368 3.899-5.463.169-3.372-.887-5.143-4.124-6.765-1.675-.832-2.238-1.387-2.295-2.198-.098-1.558 1.577-1.792 3.632-.533 1.182.725 1.633.704 2.168-.086.408-.64.506-1.323.309-2.24-.324-1.494-2.041-2.54-4.377-2.668-1.042-.064-1.732 0-2.112.192Z" fill="#9CA3AF"/></svg>