<svg width="127" height="48" viewBox="0 0 127 48" fill="none" xmlns="http://www.w3.org/2000/svg">
<path d="M12.824 0.489378C9.43029 1.02543 4.48512 2.90163 3.27307 4.08095C2.20647 5.09945 2.06102 9.4415 3.03066 9.87035C3.41852 10.0312 5.40628 9.49511 7.53949 8.69103C12.6301 6.76123 19.1752 6.5468 21.7932 8.20858C24.3143 9.87035 25.2354 12.0682 25.5263 17.1607L25.8172 21.5028L24.4112 21.1811C15.733 19.1977 10.206 19.6266 5.74566 22.5749C2.01254 25.0407 0.267188 28.3643 0.0247776 33.5104C-0.16915 38.5493 0.752008 41.444 3.61245 44.3387C6.23048 47.019 8.75154 47.7695 13.7937 47.5014C18.0601 47.2334 21.2114 45.8397 24.1203 42.8378C24.993 41.9265 25.7687 41.176 25.8657 41.176C25.9142 41.176 26.6899 42.3553 27.5141 43.8027C28.3868 45.25 29.4049 46.5901 29.8412 46.751C30.8593 47.1798 35.3682 44.0707 35.3682 42.9986C35.3682 42.5697 34.8833 41.176 34.3016 39.9431C33.2834 37.8524 33.1865 36.7267 32.9441 24.2902C32.7501 15.6061 32.4108 10.2992 32.0229 9.28069C30.1321 4.18816 26.5929 1.34707 21.0175 0.435772C17.2359 -0.153889 16.848 -0.153889 12.824 0.489378ZM23.7325 26.6489C25.1385 26.9705 25.4778 27.2922 25.5748 28.5787C25.6718 29.49 25.5263 31.4198 25.1869 32.9743C24.1688 38.2277 18.8843 41.7656 13.2119 41.0152C10.0606 40.6399 8.16976 38.4421 7.83038 34.8505C7.20012 27.3458 13.1634 24.2366 23.7325 26.6489Z" fill="#9CA3AF"/>
<path d="M108.286 0.435721C103.632 1.50783 99.6076 4.83138 98.0562 8.8518C97.0865 11.4249 97.2805 15.8205 98.444 18.5008C100.141 22.3604 102.614 24.2366 109.498 26.7561C112.843 27.989 116.188 29.3291 116.916 29.758C118.419 30.5621 119.728 32.9743 119.728 34.9577C119.728 37.0483 117.207 39.8358 114.637 40.6399C111.389 41.6584 105.183 41.0151 101.062 39.2998C99.1228 38.4957 97.5714 38.1204 97.329 38.3885C97.0865 38.6565 96.9411 40.0502 97.0381 41.4976C97.1835 44.0171 97.2805 44.1779 99.4137 45.3572C102.614 47.1262 108.674 48.3055 112.552 47.9303C121.376 47.0726 127 41.6584 127 34.0464C127 26.7025 124.285 23.8078 114.104 20.3234C106.88 17.8575 104.359 15.5525 104.941 12.0145C105.765 6.9756 112.698 5.31383 120.552 8.20853C124.673 9.76309 125.061 9.60228 125.061 6.43955C125.061 4.0809 123.412 2.36552 120.164 1.23981C116.964 0.221299 111.001 -0.207546 108.286 0.435721Z" fill="#9CA3AF"/>
<path d="M37.7916 2.68719C37.7916 4.08094 48.6031 43.7491 49.4273 45.4644C49.8637 46.3757 50.4454 46.5366 53.5483 46.5366C56.5057 46.5366 57.2329 46.3757 57.5723 45.5717C57.8632 45.0892 59.657 37.2628 61.5963 28.1498C63.5356 19.0905 65.2809 11.8537 65.4264 12.0682C65.6203 12.3362 67.3172 19.841 69.2565 28.8467C71.1958 37.8525 73.0381 45.5181 73.2805 45.8397C73.6199 46.2685 75.0743 46.5366 77.353 46.5366C80.2619 46.5366 80.9891 46.3757 81.3285 45.5717C82.3466 43.481 93.5945 2.52638 93.3036 2.04393C93.1581 1.72229 91.4612 1.50787 89.6189 1.50787C86.5646 1.50787 86.2252 1.61508 85.7888 2.68719C85.5464 3.38407 83.5587 11.5321 81.377 20.8059C77.8863 35.9763 77.0621 39.0854 77.0621 37.6916C77.0621 36.3515 69.6443 2.7944 69.208 2.20474C68.5292 1.23984 62.3235 1.23984 61.6448 2.20474C61.3539 2.57998 59.4631 10.5672 57.4753 19.9482C55.4876 29.3292 53.7907 37.102 53.6453 37.2092C53.5483 37.3164 51.7545 29.8652 49.6697 20.6451C47.585 11.4785 45.5972 3.38407 45.2094 2.68719C44.6276 1.66869 44.1428 1.50787 41.1854 1.50787C37.9856 1.50787 37.7916 1.56148 37.7916 2.68719Z" fill="#9CA3AF"/>
</svg>
