<svg width="180" height="48" fill="none" xmlns="http://www.w3.org/2000/svg"><path d="M9.89.09c-.582.082-1.612.396-2.106.635-2.016.971-3.28 2.936-3.828 5.955-.25 1.382-.3 2.353-.3 5.738v3.123H0V23.76h3.657v23.759h7.258v-23.76h2.438c1.34 0 2.438-.022 2.438-.06 0-.03.15-1.875.32-4.109l.322-4.05h-5.529l.027-2.711c.028-2.937.056-3.243.339-3.751a1.65 1.65 0 0 1 .892-.755c.271-.104.686-.127 2.288-.157l1.95-.037V0l-3.03.008c-1.674.007-3.236.044-3.48.082ZM85.267 1.637l-3.518.799v44.291l1.385.284c3.32.672 4.893.874 7.341.934 4.427.104 7.275-.65 9.303-2.473 1.762-1.584 2.676-3.848 3.086-7.591.077-.725.1-1.719.116-6.426.033-6.918-.022-8.323-.404-10.213-.477-2.384-1.441-3.983-2.981-4.954-2.316-1.464-6.737-1.584-9.945-.276l-.615.254V.822l-.122.008c-.072.007-1.712.366-3.645.807Zm8.705 21.89c.808.345 1.368 1.107 1.579 2.153.1.478.105.844.105 5.626 0 4.744-.006 5.155-.1 5.603-.332 1.562-1.014 2.406-2.255 2.802-.482.157-2.449.24-3.585.15l-.681-.053V24.611l.543-.314c.681-.396 1.219-.642 1.74-.791.615-.18.681-.187 1.512-.157.599.015.859.06 1.142.179ZM155.299 1.636l-3.518.8-.017 22.541-.011 22.542H159.066l.011-7.472.017-7.471 3.319 7.471 3.313 7.472H173.632l-3.623-8.152c-1.995-4.483-3.629-8.181-3.629-8.218 0-.045 1.623-3.542 3.601-7.77 1.983-4.237 3.601-7.726 3.601-7.771 0-.037-1.485-.067-3.895-.067-3.645 0-3.906.007-3.983.127-.045.075-1.552 3.28-3.347 7.12l-3.263 6.986-.017-14.48-.011-14.472-.127.007c-.067.008-1.707.367-3.64.807ZM47.648 15.167c-2.925.344-5.108 1.495-6.665 3.512-.731.941-1.191 1.778-1.618 2.951-.537 1.487-.842 2.907-.997 4.73-.1 1.158-.122 8.98-.022 10.16.465 5.798 2.726 9.43 6.731 10.812 1.435.5 2.095.59 4.178.59 1.451.008 2.039-.022 2.687-.134a40.107 40.107 0 0 0 3.823-.852l.72-.21.017-3.974c.01-3.923.01-3.975-.1-3.975-.061 0-.776.15-1.59.329-1.99.44-2.67.56-3.945.657-1.247.097-2.61 0-3.291-.231-.997-.351-1.574-1.046-1.84-2.227-.171-.762-.204-1.875-.182-6.336.022-4.258.027-4.43.144-4.998.221-1.083.537-1.629 1.197-2.062.747-.493 1.124-.56 3.08-.56 1.44.007 1.828.03 2.632.179.836.15 3.357.687 3.756.8l.15.044v-4.005c0-2.204-.006-4.004-.017-4.004-.006 0-.438-.12-.947-.262a29.005 29.005 0 0 0-3.58-.784c-1.113-.18-3.396-.254-4.32-.15ZM67.41 15.167c-1.678.194-3.318.755-4.476 1.532-.665.455-1.396 1.173-1.933 1.897-1.264 1.719-1.973 3.878-2.25 6.882-.094 1.023-.11 9.989-.022 11.095.47 5.768 2.726 9.369 6.737 10.759 1.524.53 2.033.597 4.732.597 2.377-.007 3.075-.052 4.57-.306.793-.134 2.35-.478 3.242-.725l.637-.172.016-3.974c.011-3.452 0-3.975-.066-3.975-.05 0-.465.082-.93.187-2.45.53-4.1.747-6.334.821-3.23.12-4.465-.343-5.036-1.882-.216-.59-.31-1.218-.349-2.399l-.033-1.06h13.369V30.46c0-4.4-.039-5.2-.333-6.836-.88-4.909-3.324-7.561-7.673-8.346-.792-.142-3.009-.21-3.867-.112Zm2.55 7.442c.797.216 1.362.732 1.667 1.509.272.68.35 1.195.382 2.533l.034 1.218h-6.128l.033-1.256c.017-.762.061-1.397.11-1.636.278-1.308.926-2.107 1.918-2.376.515-.142 1.48-.134 1.983.008ZM114.455 15.175c-3.014.239-5.33 1.434-6.893 3.534-1.257 1.703-1.95 3.683-2.332 6.687-.078.597-.094 1.516-.111 5.573-.028 5.185-.006 5.858.238 7.494.687 4.67 2.765 7.591 6.25 8.794 1.429.493 2.105.59 4.133.59s2.704-.097 4.139-.59c3.252-1.128 5.291-3.81 6.078-8.017.326-1.74.326-1.74.354-7.187.011-3.43 0-5.305-.044-5.865-.349-4.603-1.795-7.681-4.421-9.452-1.868-1.255-4.46-1.8-7.391-1.561Zm2.526 8.323c1.003.373 1.623 1.173 1.95 2.503.095.38.106.8.122 5.215.017 5.334 0 5.678-.321 6.56-.333.911-1.008 1.591-1.873 1.875-.515.172-1.784.165-2.305-.007-.825-.27-1.534-.986-1.85-1.868-.316-.882-.316-.844-.316-6.246 0-4.52.011-5.014.1-5.447.31-1.524 1.13-2.443 2.449-2.727.354-.075 1.717.022 2.044.142ZM137.79 15.175c-2.238.186-4.261.97-5.657 2.181-1.978 1.711-3.136 4.363-3.579 8.196-.088.762-.1 1.42-.1 5.94 0 4.46.012 5.185.1 5.94.349 3.108 1.086 5.237 2.416 6.97 1.368 1.786 3.169 2.832 5.712 3.318.548.105 1.064.135 2.438.127 1.928 0 2.67-.104 3.994-.553 3.679-1.247 5.735-4.266 6.388-9.376.172-1.3.211-2.974.183-7.263-.027-4.46-.055-4.998-.343-6.627-.599-3.422-2.045-5.932-4.205-7.33-1.917-1.232-4.488-1.77-7.347-1.523Zm2.51 8.315c.482.18.908.486 1.241.897.332.403.51.777.692 1.434.128.441.128.471.144 5.5.012 4.325.006 5.125-.066 5.543-.172.971-.554 1.741-1.108 2.227-1.053.911-3.009.956-4.194.09-.344-.255-.77-.86-.959-1.36-.304-.807-.31-.904-.31-6.224 0-3.011.022-5.058.055-5.305.089-.628.394-1.412.715-1.845.322-.434.914-.852 1.391-.98.166-.044.354-.096.415-.111.244-.082 1.674.022 1.984.134ZM18.815 15.78c-.033.239-.587 7.74-.587 7.89 0 .052 1.29.09 3.978.112 3.446.022 4.033.045 4.443.157.582.157 1.014.418 1.291.777.466.605.588 1.307.593 3.392v1.404H25.52c-1.656 0-3.269.038-3.584.075-3.602.478-5.463 2.488-6.012 6.5-.138.994-.138 3.49 0 4.483.698 5.096 3.49 7.77 7.651 7.33 1.928-.21 3.502-.777 5.23-1.883.377-.247.693-.434.699-.426.01.03.249 1.875.249 1.95 0 .03 1.374.052 3.047.052h3.047V37.41c0-11.857-.022-12.694-.415-14.883-.643-3.632-2.222-5.574-5.214-6.433-1.584-.456-2.947-.553-7.65-.553h-3.724l-.028.239Zm9.718 22.093v1.786l-.371.239c-.576.366-1.108.65-1.596.836-.382.15-.57.172-1.33.172-.808 0-.908-.015-1.163-.172-.366-.224-.654-.62-.809-1.09-.105-.307-.133-.553-.15-1.255-.022-.808-.01-.905.117-1.286.094-.276.205-.47.354-.597.422-.374.649-.411 2.887-.411l2.061-.008v1.786ZM177.349 41.99c-.665.186-1.268.844-1.568 1.703-.166.464-.177.56-.177 1.285 0 .725.011.822.172 1.27.338.942.842 1.48 1.579 1.689 1.44.404 2.759-1.188 2.637-3.183-.094-1.539-.931-2.682-2.05-2.794a1.898 1.898 0 0 0-.593.03Zm1.208.68c.942.627 1.302 2.211.815 3.549a2.188 2.188 0 0 1-.898 1.128c-.266.164-.36.187-.759.157-.321-.023-.515-.082-.687-.202-.327-.224-.682-.717-.848-1.166-.116-.32-.133-.478-.133-1.158 0-.665.017-.837.128-1.128.194-.53.482-.934.853-1.18.288-.202.399-.232.765-.232.365 0 .476.03.764.232Z" fill="#9CA3AF"/><path d="m177.144 43.312-.183.03V46.771h.388V45.279h.277c.355 0 .521.194.577.672.017.187.061.448.094.575.05.217.083.247.25.247.105 0 .188-.023.188-.06 0-.03-.039-.306-.089-.613-.088-.575-.188-.874-.327-.941-.055-.03-.016-.127.144-.321.178-.24.217-.33.217-.576 0-.65-.272-.926-.932-.964-.232-.014-.51-.007-.604.015Zm.992.62c.133.187.161.27.133.434-.061.336-.227.463-.593.463h-.327v-1.12h.311c.271 0 .327.03.476.224Z" fill="#9CA3AF"/></svg>