<svg width="180" height="48" fill="none" xmlns="http://www.w3.org/2000/svg"><path d="M10.173 12.48v12.478L5.087 36.227C2.289 42.427 0 47.519 0 47.542c0 .016 2.012.023 4.462.016l4.474-.024 2.232-4.959c1.225-2.724 2.277-4.99 2.335-5.029.058-.038.358-.062.67-.046l.567.023 3.722 5.029 3.735 5.021h5.375c2.96 0 5.376-.03 5.376-.062 0-.039-1.584-2.258-3.526-4.944-1.942-2.685-3.526-4.928-3.526-4.982 0-.085 1.468-.1 8.08-.1 4.452 0 8.117.023 8.14.054.034.038-.948 2.281-2.185 4.99-1.226 2.708-2.243 4.951-2.243 4.99 0 .03 2.196.046 4.867.039l4.867-.024 2.231-4.951c1.226-2.724 2.266-4.975 2.312-5.006.035-.03 5.434-.062 11.977-.077 11.145-.023 11.896-.016 11.896.1 0 .078-.936 2.29-2.08 4.929-1.145 2.638-2.082 4.835-2.082 4.881 0 .062 1.341.086 4.89.086h4.89l2.012-4.75a6776.7 6776.7 0 0 0 2.104-5.013l.104-.249 2.22.016 2.22.023.069 4.967c.035 2.732.07 4.974.08 4.982.013.016 1.885.024 4.163.024l4.127-.008 4.74-4.983 4.74-4.982 3.098-.023c2.821-.016 3.087-.008 3.087.108 0 .078-.706 2.305-1.561 4.96a573.87 573.87 0 0 0-1.561 4.873c0 .031 2.185.055 4.856.055 2.67 0 4.855-.024 4.855-.055 0-.147 3.029-9.63 3.122-9.786l.115-.17 2.74.015 2.752.023.069 1.242c.277 4.757 3.827 7.644 10.798 8.8 2.231.373 3.364.435 7.514.435 3.815 0 5.191-.054 8.382-.318 2.89-.24 8.971-.978 9.167-1.11.058-.039.844-2.057 1.746-4.486.913-2.429 1.688-4.462 1.734-4.509.058-.07 1.503-.093 5.572-.093H180V0h-39.884v23.95l-.821.457c-.451.249-1.203.738-1.677 1.071l-.855.613V0h-40v21.808H93.41V0H53.526l-.023 10.92-.035 10.926-1.641.024-1.654.023V0h-40v12.48Zm38.497-.381v11.168l-2.959 6.55c-1.63 3.6-3.006 6.604-3.064 6.674-.104.132-.647.14-8.82.14H25.12l-.67-.963-.67-.97 1.722-1.203c.948-.66 5.18-3.539 9.399-6.402l7.664-5.208H30.462l-7.283 5.23c-4 2.872-7.295 5.2-7.318 5.177-.011-.03.994-2.305 2.232-5.052 1.248-2.755 2.288-5.083 2.323-5.184l.07-.17H11.56V.93H48.67V12.1Zm43.353-.73v10.439l-4.647.015-4.648.023-3.19 7.373-3.191 7.373-4.902.023c-2.694.008-4.867-.008-4.82-.031.034-.023.473-.163.959-.31 2.97-.87 5.237-2.274 6.578-4.106 1.063-1.443 1.676-3.298 1.676-5.037 0-1.133-.196-1.808-.751-2.568-.995-1.397-2.729-2.158-5.77-2.538-1.167-.14-1.86-.163-7.837-.194l-6.567-.039V.932h37.11v10.437Zm43.237 2.771v13.201l-.821.846c-2.416 2.491-3.953 5.176-4.67 8.149l-.07.295h-2.705c-1.491 0-2.717-.016-2.717-.04 0-.046 4.474-14.24 4.59-14.535l.058-.17H113.202l-7.017 7.372-7.029 7.373H98.15V.93h37.11V14.14Zm43.353 4.64v17.85h-4.601c-2.532 0-4.636-.015-4.671-.038-.035-.023.266-.924.671-2.002.404-1.08.739-1.98.739-2.018 0-.031-4.208-.055-9.352-.055h-9.353l-.647 1.762a74.878 74.878 0 0 1-.775 2.057l-.115.295h-9.006v-.544c0-1.148.89-3.29 2.035-4.889 2.566-3.6 6.578-5.588 11.491-5.72 3.861-.1 6 .916 6.058 2.864l.011.606h11.133l.116-.373c.601-1.855.416-3.275-.567-4.509-1.572-1.963-4.74-3.089-9.872-3.516-1.619-.132-6.417-.132-8.035 0-2.694.218-4.809.528-6.937 1.002-1.19.263-3.976 1.133-4.936 1.536l-.497.202V.93h37.11v17.85ZM64.624 26.092c2.162.38 2.532 1.157 1.55 3.252-.648 1.405-1.573 2.375-2.729 2.88-1.514.66-2.728.83-6.416.892-2.544.039-2.81.031-2.81-.078 0-.07.232-.698.51-1.389.288-.698.878-2.212 1.34-3.36.451-1.157.844-2.158.879-2.235.07-.14.243-.148 3.55-.109 2.543.023 3.664.062 4.126.148Zm25.434 6.814.034 3.687-1.976.023c-1.55.016-1.989 0-1.989-.078 0-.054.844-2.11 1.873-4.563l1.884-4.462.07.853c.046.466.092 2.515.104 4.54Zm25.896-.636a575.24 575.24 0 0 0-1.388 4.323c0 .023-1.248.039-2.774.039s-2.775-.024-2.775-.047c0-.093 8.266-8.723 8.301-8.661.011.031-.601 1.995-1.364 4.346Zm42.566 5.254c.035.023-.358 1.187-.878 2.584l-.948 2.538-1.272.132c-2 .202-4.624.318-5.815.264-4.416-.21-7.052-1.46-7.977-3.787-.254-.637-.428-1.56-.301-1.684.07-.086 17.064-.132 17.191-.047Z" fill="#9CA3AF"/></svg>