<svg width="180" height="48" fill="none" xmlns="http://www.w3.org/2000/svg">
    <g clip-path="url(#a)" fill="#9CA3AF">
        <path d="M3.24 34.6V2.88h6.53V34.6H3.24ZM26.482 11.588c-8.371 0-14.164 5.493-14.164 11.78 0 7.016 6.302 11.85 14.23 11.85 7.523 0 14.051-4.745 14.051-11.866 0-5.988-5.41-11.764-14.117-11.764Zm-.077 5.375c4.381 0 7.606 2.91 7.606 6.425 0 3.726-3.555 6.445-7.487 6.445-4.646 0-7.57-3.143-7.57-6.435 0-3.609 3.3-6.435 7.451-6.435ZM57.004 11.588c-8.371 0-14.164 5.493-14.164 11.78 0 7.016 6.302 11.85 14.229 11.85 7.523 0 14.052-4.745 14.052-11.866 0-4.193-2.128-6.053-2.128-6.053l1.81-.53v-4.522h-9.274s-2.01-.66-4.525-.66Zm-.077 5.375c4.38 0 7.605 2.91 7.605 6.425 0 3.726-3.555 6.445-7.487 6.445-4.646 0-7.57-3.143-7.57-6.435 0-3.609 3.301-6.435 7.452-6.435ZM64.486 36.15c0 3.726-3.555 6.465-7.487 6.465-4.646 0-7.582-3.173-7.582-6.465h-6.623c0 7.016 6.302 11.85 14.229 11.85 7.523 0 14.052-4.73 14.052-11.85h-6.589ZM73.736 34.6V12.246h6.529v22.352h-6.53ZM86.605 34.6V17.252h-3.501v-5.006h3.5V5.383h6.53v6.864h3.596v5.006h-3.596V34.6h-6.53ZM81.31 5.898c0 2.038-1.936 3.69-4.323 3.69-2.388 0-4.324-1.652-4.324-3.69 0-2.037 1.936-3.69 4.324-3.69s4.323 1.653 4.323 3.69ZM111.408 11.572c-8.41 0-13.833 5.496-13.833 11.997 0 6.719 5.441 11.664 13.97 11.664 7.956 0 11.869-4.24 11.869-4.24l-4.365-3.73s-3.295 3.034-7.422 3.034c-3.44 0-6.19-1.639-7.15-4.643h20.345v-1.535c0-6.122-4.153-12.546-13.414-12.546Zm-.206 4.906c3.007 0 6.083 1.373 6.771 4.654H104.3c.541-2.306 2.905-4.654 6.902-4.654ZM141.153 35.236c-8.435 0-14.182-5.482-14.182-11.946 0-6.671 6.496-11.722 14.155-11.722 7.404 0 11.194 4.461 11.194 4.461l-4.554 3.87s-2.639-2.91-6.671-2.91c-4.469 0-7.525 2.918-7.525 6.386 0 3.662 3.25 6.472 7.475 6.472 4.097 0 6.714-2.905 6.714-2.905l4.601 3.868s-3.754 4.426-11.207 4.426ZM154.735 34.615V2.8h6.529v11.69s2.5-2.92 7.938-2.92c6.837 0 10.798 4.337 10.798 9.884v13.162h-6.529v-12.32c0-3.727-2.719-5.273-5.731-5.273-3.431 0-6.476 1.667-6.476 5.561v12.032h-6.529Z" />
    </g>
    <defs>
        <clipPath id="a">
            <path fill="#fff" d="M0 0h180v48H0z" />
        </clipPath>
    </defs>
</svg>