<svg width="180" height="49" fill="none" xmlns="http://www.w3.org/2000/svg"><path d="M11.692.511c-1.267.133-2.511.532-3.715 1.192-.47.253-1.415.914-1.881 1.308C3.529 5.185 1.602 8.547.66 12.504a24.318 24.318 0 0 0-.472 8.656c.435 3.554 1.702 6.944 3.557 9.509 3.506 4.85 8.688 6.388 13.325 3.957.234-.12.43-.206.438-.19l2.956 6.474c2.696 5.91 2.952 6.462 3.154 6.74.25.35.495.559.82.712.208.1.271.109.649.109.374 0 .44-.008.642-.105.922-.435 1.507-1.63 1.452-2.971a4.029 4.029 0 0 0-.245-1.228c-.046-.113-1.388-3.06-2.981-6.554l-2.904-6.349.366-.495c3.004-4.054 4.364-9.903 3.65-15.708-.55-4.49-2.4-8.604-5.073-11.289-2.149-2.154-4.79-3.325-7.435-3.301-.31.004-.7.02-.867.04ZM13.694 5.6c2.431.439 4.505 2.057 6.006 4.694 1.049 1.836 1.688 4.022 1.904 6.497.052.596.046 2.142-.014 2.778-.216 2.34-.792 4.348-1.766 6.152-2.143 3.981-5.85 5.837-9.307 4.658-2.48-.846-4.56-3.064-5.793-6.176-1.791-4.529-1.4-10.185.988-14.183 1.527-2.56 3.783-4.187 6.21-4.48.41-.049 1.349-.017 1.772.06Z" fill="#9CA3AF"/><path d="M12.225 9.444c-.262.06-.467.153-.72.323-.87.591-1.449 1.88-1.599 3.55-.034.383-.037.39-.12.415-.133.044-.274.27-.33.531-.126.608.125 1.554.482 1.82.127.093.127.097.25.624.22.946.52 1.67.928 2.238.366.512.712.765 1.193.878.432.1.942-.036 1.336-.362.222-.181.634-.741.81-1.1.219-.438.414-1.018.567-1.658.13-.54.144-.58.248-.676.25-.234.432-.798.438-1.37.002-.462-.067-.692-.26-.849-.112-.092-.126-.12-.126-.25 0-.084-.02-.313-.044-.51-.25-2.146-1.253-3.555-2.578-3.624-.167-.008-.38 0-.475.02ZM9.791 20.874c-1.34.624-2.281 1.167-2.471 1.425-.441.592-.752 1.614-.896 2.935l-.055.49.208.323a10.755 10.755 0 0 0 1.679 1.952c.132.113.242.206.248.206.008 0 .02-.33.028-.737.018-.793.05-1.003.222-1.477l.084-.222.003 1.353v1.352l.31.206c2.14 1.417 4.563 1.501 6.77.241l.351-.201v-1.498c.003-1.485.003-1.493.058-1.348.029.076.083.257.118.402.06.234.066.346.078 1.256l.011.999.222-.17c.573-.434 1.207-1.082 1.752-1.79l.293-.383-.014-.19c-.15-1.831-.395-2.818-.893-3.586-.112-.178-.199-.258-.44-.42-.473-.31-1.185-.688-2.107-1.118l-.846-.395-.092.693c-.17 1.296-.873 5.785-.902 5.785-.012 0-.138-.979-.285-2.178L12.96 22.6l.161-.528.161-.531-.27-.354-.268-.35h-.346l-.268.354-.27.35.16.523.165.524-.268 2.182c-.147 1.203-.274 2.186-.282 2.186-.02 0-.055-.21-.432-2.617a183.87 183.87 0 0 1-.539-3.672l-.023-.189-.85.395ZM101.852 16.63v12.018h3.543V4.613h-3.543v12.018ZM37.473 5.322c-1.27.213-2.126.612-2.938 1.365-1.017.942-1.74 2.42-1.97 4.026-.196 1.376-.113 3.104.21 4.223.245.857.697 1.67 1.238 2.234.62.64 1.196 1.022 2.31 1.53.516.233.781.338 1.956.769 1.743.64 2.627 1.252 2.867 1.984.04.121.089.367.106.544.121 1.167-.409 2.065-1.414 2.387-.326.105-1.161.145-1.619.08a5.295 5.295 0 0 1-1.293-.366c-.787-.358-1.749-1.099-2.645-2.045-.178-.189-.337-.326-.348-.306-.185.294-2.086 3.499-2.094 3.535-.023.088.705.902 1.256 1.4.285.263.956.798.993.798.009 0 .095.056.193.125.432.294 1.27.7 1.881.918.888.31 1.432.406 2.434.434.657.017.905.008 1.239-.044 2.803-.45 4.574-2.548 4.943-5.861.032-.286.049-.68.049-1.228 0-1.228-.101-1.96-.38-2.782a5.057 5.057 0 0 0-.767-1.49c-.803-1.115-2.01-1.908-4.099-2.697-1.59-.596-2.212-.873-2.647-1.171-.665-.46-.924-1.023-.896-1.949.01-.35.02-.419.119-.688.126-.363.371-.705.648-.91.53-.395 1.518-.48 2.442-.21.271.077.864.339 1.069.468.703.438 1.247.849 1.803 1.356.182.161.323.266.337.246.02-.032 1.803-3.635 1.855-3.752.009-.02-.095-.157-.236-.302-1.374-1.417-2.829-2.234-4.528-2.548-.343-.06-1.82-.113-2.074-.073ZM162.42 5.487c-.011.028-6.996 22.955-7.04 23.112-.011.04.36.049 1.838.04l1.849-.012.749-2.568.749-2.565h6.977l.749 2.577.749 2.576h1.895c1.04 0 1.893-.003 1.893-.012 0-.008-1.585-5.217-3.523-11.582L165.782 5.48l-1.674-.012c-.921-.004-1.682.004-1.688.02Zm2.743 9.84c.587 2.004 1.068 3.659 1.068 3.67 0 .017-.979.029-2.175.029-1.44 0-2.174-.012-2.174-.04 0-.025.475-1.659 1.054-3.636l1.083-3.691c.02-.08.032-.089.052-.04.011.032.504 1.702 1.092 3.707ZM176.371 17.134v11.514H180V5.62h-3.629v11.514ZM53.33 10.733c-1.36.213-2.613 1.054-3.572 2.395-.985 1.373-1.613 3.172-1.85 5.294-.071.652-.071 2.36 0 3.02a11.75 11.75 0 0 0 .597 2.717c.922 2.657 2.598 4.316 4.84 4.799.466.1 1.71.1 2.203 0 1.498-.306 2.679-1.164 3.716-2.698.167-.245.3-.467.296-.495-.008-.044-1.967-2.48-2.013-2.504-.014-.008-.1.073-.193.185-.625.753-1.259 1.232-1.913 1.45-.3.096-.374.104-.945.108-.68 0-.87-.044-1.345-.302-.677-.362-1.253-1.147-1.535-2.081-.104-.342-.236-.974-.213-1.023.008-.02 1.832-.036 4.39-.036h4.372l.023-.274c.038-.47.02-1.884-.028-2.483-.118-1.397-.349-2.549-.726-3.624-.738-2.113-2.034-3.627-3.604-4.207-.501-.185-.887-.25-1.593-.261-.371-.008-.78 0-.907.02Zm1.492 4.098c.432.185.735.443 1.043.898.308.455.521.95.688 1.598.08.318.196 1.047.173 1.103-.009.016-1.221.032-2.696.032h-2.682l.017-.193c.026-.282.153-.87.277-1.26.38-1.204 1.011-1.969 1.835-2.226.297-.093 1.08-.065 1.345.048ZM85.13 10.737c-1.07.205-2.041 1.026-2.862 2.42-.101.172-.196.313-.208.313-.014 0-.026-.551-.026-1.228v-1.228h-3.543v17.634h3.543v-5.053c0-3.31.012-5.19.032-5.439.043-.555.12-.95.274-1.385.112-.31.178-.438.368-.704.404-.56.836-.79 1.487-.793.426 0 .7.076.996.274.625.414.991 1.248 1.104 2.512.02.221.031 2.121.031 5.463v5.125h3.54l.012-5.266c.011-5.777.003-5.512.187-6.24.274-1.08.882-1.74 1.714-1.856.496-.069.954.036 1.32.302.567.415.912 1.212 1.033 2.371.018.177.03 2.222.03 5.483v5.206h3.575l-.012-6.232c-.012-6.502-.01-6.377-.139-7.271-.282-1.944-1.037-3.301-2.218-3.986-.83-.479-2.022-.603-3.036-.322-.994.278-1.947 1.06-2.728 2.235a5.204 5.204 0 0 1-.282.398c-.009 0-.058-.108-.11-.241-.486-1.24-1.38-2.114-2.474-2.42-.354-.096-1.256-.14-1.607-.072ZM114.483 10.737c-1.152.193-2.192.793-3.068 1.767a10.144 10.144 0 0 0-1.054 1.514c-.697 1.296-1.141 2.838-1.314 4.565-.057.584-.049 2.234.018 2.838.325 3.016 1.561 5.427 3.422 6.683.636.43 1.233.68 2.039.854.467.1 1.682.1 2.175 0a5.057 5.057 0 0 0 1.913-.801c.694-.48 1.414-1.244 1.895-2.01.228-.358.236-.378.187-.446-.026-.037-.489-.612-1.025-1.272l-.977-1.208-.06.08c-.424.572-1.167 1.212-1.688 1.458-.444.205-.66.245-1.311.245-.53-.004-.636-.012-.864-.092-.997-.35-1.72-1.232-2.06-2.512-.08-.314-.17-.79-.149-.814.008-.012 1.981-.024 4.387-.024h4.37l.017-.193c.127-1.482-.052-3.64-.429-5.161-.363-1.474-1.06-2.899-1.835-3.752-.844-.93-1.619-1.405-2.731-1.667-.328-.076-1.515-.109-1.858-.052Zm1.334 4.046c.406.117.821.41 1.12.789.306.394.62 1.11.781 1.787.075.306.178.934.178 1.067 0 .02-1.14.036-2.693.036h-2.693v-.084c0-.274.21-1.152.392-1.647.386-1.047.99-1.727 1.725-1.944.277-.085.907-.085 1.19-.004ZM128.655 10.773c-.72.068-1.489.346-2.033.725-.721.51-1.403 1.481-1.755 2.516-.469 1.373-.461 3.438.02 4.642.265.664.718 1.336 1.199 1.783.53.491 1.086.805 2.477 1.4 1.481.637 1.795.818 2.074 1.172.196.25.256.447.256.822-.005.608-.268 1.002-.798 1.191-.861.306-2.163-.032-3.37-.873a8.347 8.347 0 0 1-.988-.81c-.178-.165-.328-.293-.334-.285-.092.145-1.512 3.277-1.495 3.297.087.109.542.555.801.785 1.011.886 2.088 1.433 3.428 1.74.36.08 1.544.116 1.953.055 1.976-.297 3.307-1.553 3.811-3.603.23-.934.276-2.415.109-3.345-.144-.79-.596-1.691-1.146-2.295-.62-.676-1.285-1.107-2.786-1.807-1.527-.709-2.077-1.112-2.281-1.655-.13-.35-.046-.874.184-1.164.262-.334.547-.446 1.106-.442.476.004.813.088 1.386.354.561.266 1.397.789 1.872 1.175l.124.101.069-.173c.219-.527 1.288-3.257 1.288-3.281 0-.02-.133-.145-.294-.282-1.213-1.01-2.595-1.618-3.958-1.743-.467-.04-.458-.04-.919 0ZM141.3 10.773c-1.293.125-2.356.757-3.096 1.836-.668.978-.985 2.049-1.028 3.478-.055 1.872.391 3.197 1.434 4.235.553.552 1.126.886 2.662 1.546 1.472.632 1.846.858 2.102 1.276.185.298.225.72.11 1.115a1.485 1.485 0 0 1-.4.588c-.283.234-.908.342-1.467.262-1.091-.165-2.134-.737-3.223-1.763-.173-.162-.325-.29-.337-.286-.035.016-1.504 3.184-1.506 3.249-.006.116.881.934 1.48 1.36 1.671 1.188 3.745 1.603 5.444 1.095 1.587-.479 2.668-1.69 3.08-3.458.152-.652.187-1.01.187-1.973 0-.857-.003-.925-.078-1.304-.297-1.534-1.195-2.701-2.728-3.538-.492-.27-.51-.278-1.195-.592-1.271-.588-1.757-.898-2.126-1.365-.161-.201-.222-.395-.222-.7 0-.999.838-1.458 2.045-1.116.631.177 1.61.709 2.333 1.264.245.19.34.246.363.21.044-.06 1.337-3.346 1.337-3.394 0-.052-.521-.48-.91-.749-1.069-.732-2.21-1.167-3.339-1.276-.469-.044-.458-.044-.922 0ZM68.165 10.837c-1.254.125-1.902.294-2.939.77-.535.24-1.14.579-1.157.64-.01.036.838 3.743.87 3.792.002.004.129-.053.282-.133.982-.495 1.696-.709 2.658-.79.93-.076 1.6.057 2.143.431.222.153.317.25.507.516.4.56.56 1.115.605 2.126l.02.434-.14-.06a8.74 8.74 0 0 0-1.726-.572c-.539-.108-1.959-.1-2.506.02-1.29.282-2.206.874-2.863 1.844-.697 1.035-.988 2.255-.945 3.962.032 1.215.239 2.093.694 2.959.588 1.107 1.432 1.787 2.616 2.097.322.088 1.362.12 1.754.06 1.118-.177 1.993-.748 2.805-1.823.133-.174.245-.314.257-.314.008 0 .017.414.017.925v.927h3.457v-5.085c0-2.794-.015-5.39-.03-5.765-.088-2.283-.52-3.849-1.388-5.044-.717-.99-1.734-1.61-3.018-1.84-.34-.06-1.634-.113-1.973-.077Zm1.581 10.141c.369.077.876.266 1.178.431l.236.133.009.64c.006.536-.003.697-.049.958-.156.854-.562 1.514-1.198 1.949-.74.503-1.881.591-2.555.193-.493-.29-.793-.725-.905-1.32-.055-.278-.052-.955.003-1.253.196-1.038.879-1.642 2.045-1.807.21-.028.945.016 1.236.076ZM150.475 27.259v1.389H152.03V25.87H150.475v1.389Z" fill="#9CA3AF"/></svg>