<svg width="242" height="48" fill="none" xmlns="http://www.w3.org/2000/svg"><path d="M11.581.304C7.967 1.414 5.47 5.148 5.47 9.459c0 .81-.057.982-.34.982-1.098 0-2.404.725-3.464 1.899C.02 14.196-.057 14.645.02 21.794c.057 6.466.133 6.829 1.457 8.557 1.041 1.323 2.309 1.857 4.731 2.006l2.1.128v2.134c0 2.604.228 3.522 1.174 4.717.984 1.28 1.911 1.664 4.41 1.814l2.08.128.058 2.987c.056 3.159.208 3.735 1.04 3.735.246 0 1.514-1.26 3.444-3.414l3.047-3.415h7.664c8.478 0 8.932-.064 10.276-1.323.397-.363.927-1.152 1.173-1.75.379-.918.454-1.43.454-3.35v-2.263l2.1-.128c2.423-.15 3.69-.683 4.732-2.006 1.324-1.728 1.4-2.091 1.457-8.579.057-5.079.019-5.975-.265-7.042-.625-2.198-2.971-4.29-4.845-4.29-.283 0-.34-.17-.34-.981 0-3.436-1.817-6.957-4.334-8.408C39.778-.016 39.608-.016 25.622.005c-10.634 0-13.246.064-14.04.299Zm27.61 6.36c.757.597 1.117 1.344 1.23 2.624l.114 1.152H10.957v-.874c0-1.516.851-2.903 1.987-3.244.208-.064 6.074-.086 13.057-.064 11.922.021 12.717.042 13.19.405ZM5.47 13.62c0 .982-.038 1.046-.568 1.153-1.135.256-1.23.725-1.286 6.53-.038 3.265-.133 5.335-.265 5.506-.246.341-.947.363-1.25.021-.17-.192-.226-1.75-.226-5.698 0-5.122.019-5.484.397-6.38.473-1.068 1.817-2.177 2.668-2.177.511 0 .53.042.53 1.045Zm42.427-.427c.568.406.984.94 1.268 1.558.378.897.397 1.26.397 6.381 0 3.948-.056 5.506-.227 5.698-.303.342-1.003.32-1.249-.021-.132-.171-.227-2.241-.265-5.506-.056-5.805-.151-6.274-1.287-6.53-.53-.107-.567-.171-.567-1.153 0-1.003.019-1.045.53-1.045.283 0 .927.277 1.4.618Zm-4.769 7.15c0 9.517.55 8.899-8.137 8.835l-5.942-.065-.246-.746c-.132-.406-.587-2.028-1.003-3.586-.833-3.009-1.211-3.67-2.12-3.67-.851 0-1.192.64-2.024 3.67-.436 1.558-.89 3.18-1.022 3.586l-.246.746-5.942.065c-6.661.042-6.85.02-7.702-1.43-.435-.726-.435-.811-.435-7.405v-6.701h34.82v6.7ZM26.55 29.242c.662 2.432.738 2.582 1.344 2.88.51.235 1.873.3 6.642.3h5.98l-.076 2.155c-.057 2.113-.057 2.155-.681 2.774l-.606.619H22.425l-1.798 2.027c-.984 1.11-1.817 2.028-1.854 2.028-.038 0-.057-.769-.057-1.686 0-2.39.037-2.37-3.407-2.37-1.703 0-3.008-.106-3.292-.234-.757-.384-1.06-1.408-1.06-3.478V32.42h5.96c4.75 0 6.113-.064 6.624-.298.606-.3.681-.449 1.344-2.881.397-1.43.776-2.583.832-2.583.057 0 .436 1.153.833 2.583Z" fill="#9CA3AF"/><path d="M15.763 15.776c-.927.234-1.911 1.003-2.384 1.878-.379.683-.436 1.13-.511 3.222-.076 2.732.113 3.713.87 4.738 1.552 2.07 4.428 1.856 5.829-.406.53-.853.567-1.088.624-3.2.095-2.69-.132-3.82-.946-4.867-.946-1.216-2.233-1.707-3.482-1.365Zm1.249 1.814c.681.405.946.917.946 1.856 0 .896-.378 1.537-1.116 1.878-1.174.534-2.48-.427-2.48-1.814 0-.981.247-1.515.909-1.9.662-.404 1.06-.426 1.741-.02ZM34.081 15.776c-1.003.256-1.91 1.11-2.403 2.22-.416.917-.473 1.344-.473 3.2 0 2.518.208 3.479.89 4.418a3.466 3.466 0 0 0 5.6 0c.758-1.003.928-2.006.852-4.61-.037-1.878-.132-2.518-.454-3.201-.68-1.473-2.536-2.412-4.012-2.027Zm1.287 1.814c2.006 1.173.568 4.716-1.532 3.734-1.363-.64-1.458-2.945-.152-3.756.606-.384 1.022-.363 1.684.022ZM179.66 7.069c-1.041.917-1.041.917-1.041 12.975 0 11.95 0 11.95.984 12.975 1.003 1.046 2.82.726 3.558-.64.379-.683.379-.96.341-12.506l-.057-11.823-.7-.725c-.606-.62-.852-.726-1.647-.726-.643 0-1.059.128-1.438.47ZM208.425 7.069c-1.041.918-1.041.918-1.041 12.975 0 11.95 0 11.95.984 12.975.625.64 1.609.811 2.479.406.719-.342 1.457-1.43 1.457-2.177 0-.342.152-.256.814.47 1.514 1.664 3.482 2.326 5.772 1.963 4.541-.726 7.38-5.72 6.661-11.759-.492-4.247-2.706-7.235-6.056-8.195-2.346-.661-5.09.192-6.509 2.092l-.663.853-.056-4.31-.057-4.311-.7-.726c-.606-.619-.852-.726-1.647-.726-.643 0-1.059.128-1.438.47Zm9.083 11.29c1.079.298 2.214 1.429 2.763 2.71.549 1.237.606 3.755.114 4.972-.757 1.899-2.139 2.987-3.823 2.987-1.703 0-3.027-.939-3.803-2.731-.549-1.26-.511-4.119.094-5.463a4.515 4.515 0 0 1 2.422-2.412c.89-.341 1.193-.363 2.233-.064ZM84.457 8.755c-1.192.384-1.76 1.664-1.778 3.948 0 1.045-.02 1.11-.568 1.237-1.06.235-1.779 1.516-1.552 2.796.114.726.87 1.58 1.533 1.729l.549.128.075 5.59c.114 6.339.228 7.043 1.477 8.324.965.981 1.968 1.259 4.068 1.152 2.063-.107 2.952-.533 3.406-1.58.398-.96.246-1.77-.473-2.539-.454-.49-.776-.64-1.684-.704-1.836-.15-1.817-.107-1.817-5.57v-4.61l1.552-.106c1.4-.085 1.628-.17 2.082-.704.435-.491.53-.769.53-1.643 0-.875-.095-1.153-.53-1.644-.473-.533-.663-.597-2.12-.683l-1.608-.064V12.17c0-1.707-.36-2.753-1.079-3.18-.568-.341-1.438-.448-2.063-.234ZM114.09 13.812c-4.503 1.323-7.134 6.445-6.225 12.122 1.059 6.594 7.91 9.987 13.454 6.658 1.476-.875 2.044-1.665 2.044-2.774 0-.64-.132-.982-.549-1.473-.738-.81-1.722-.832-2.744-.064-1.968 1.515-4.598 1.515-6.093.043-.625-.619-1.4-2.006-1.4-2.518 0-.15 1.703-.214 5.109-.214 5.318 0 5.772-.064 6.415-.939 1.154-1.558.076-6.167-2.006-8.536-1.419-1.643-3.822-2.71-5.999-2.668-.416 0-1.324.171-2.006.363Zm4.126 4.802c.738.533 1.381 1.707 1.627 2.966l.114.598h-3.69c-4.126 0-4.012.043-3.425-1.515.946-2.561 3.425-3.5 5.374-2.05ZM156.234 13.642c-1.06.298-1.798.79-2.82 1.856-.643.683-.908.875-.908.619 0-.64-.568-1.622-1.192-2.049-.776-.554-1.76-.533-2.555 0-1.135.79-1.173 1.067-1.173 9.646 0 8.665.019 8.793 1.344 9.604.775.47 1.286.49 2.157.085 1.268-.598 1.306-.854 1.419-7.064.095-5.292.114-5.591.53-6.317 1.06-1.942 3.785-1.963 4.901-.042.303.512.36 1.259.435 6.146.114 6.189.171 6.573 1.401 7.234.795.427 1.268.427 2.1.043 1.249-.598 1.306-.875 1.42-6.957.094-4.951.132-5.527.492-6.274.529-1.174 1.4-1.665 2.762-1.558.833.043 1.212.192 1.59.597.946.982 1.022 1.473 1.022 6.958 0 4.417.038 5.185.341 5.825.378.854 1.4 1.708 2.062 1.708.776 0 1.741-.598 2.139-1.323.359-.662.378-1.067.378-7.043 0-5.591-.038-6.466-.36-7.618-.473-1.708-1.305-2.86-2.611-3.586-.927-.512-1.306-.576-2.801-.597-1.532 0-1.835.064-2.952.661-.7.385-1.608 1.046-2.044 1.473l-.794.81-.322-.511c-.53-.854-1.23-1.515-2.063-1.942-.946-.47-2.895-.662-3.898-.384ZM69.033 14.154c-.605.256-1.305.704-1.608.96-1.912 1.686-2.498 5.1-1.287 7.448.7 1.323 2.063 2.24 4.882 3.265 3.123 1.131 3.823 1.814 3.01 2.945-.89 1.216-3.937.832-6.322-.81-.87-.598-1.721-.577-2.403.085-1.135 1.066-.908 2.688.511 3.713 3.823 2.774 9.443 2.646 11.657-.256 1.173-1.558 1.57-4.29.87-6.018-.718-1.772-1.91-2.69-5.317-4.055-1.097-.448-2.214-.982-2.498-1.216-.7-.555-.719-1.516-.057-2.006.7-.513 2.706-.3 4.164.448 1.59.81 2.479.79 3.16-.086.643-.81.719-2.048.151-2.838-1.23-1.793-6.49-2.71-8.913-1.58ZM96.738 13.983c-1.305.726-1.287.598-1.343 9.369-.057 8.813-.038 8.877 1.268 9.859.738.576 1.287.619 2.195.192 1.23-.576 1.419-1.28 1.419-5.058 0-3.84.208-5.42.908-6.893.549-1.13 1.685-2.112 2.896-2.475 1.495-.47 2.252-1.857 1.873-3.436-.265-1.067-.946-1.707-1.968-1.835-1.306-.171-2.271.64-3.236 2.71l-.359.747-.133-1.024c-.284-2.05-1.911-3.052-3.52-2.156ZM132.22 13.962c-1.968.448-2.952 1.024-3.274 1.9-.378 1.002-.189 1.92.53 2.603.644.597 1.003.619 3.633.085 3.161-.64 5.091.363 5.469 2.817.152.939.19.918-1.532.47-1.987-.534-4.939-.32-6.453.448-2.271 1.152-3.444 3.414-3.18 6.124.303 3.33 2.517 5.336 5.886 5.336 1.854-.022 3.009-.406 4.276-1.43.53-.427.984-.747 1.003-.704.019.042.133.32.265.64.454 1.216 1.968 1.75 3.142 1.13 1.286-.703 1.343-.98 1.343-7.468 0-4.845-.057-5.954-.34-6.957-.644-2.412-1.987-4.012-4.012-4.802-1.268-.491-5.053-.598-6.756-.192Zm5.715 11.289c.643.235.662.277.662 1.366-.019 1.323-.435 2.049-1.589 2.795-1.022.64-2.839.726-3.747.171-1.23-.747-1.495-2.475-.568-3.692.814-1.067 3.293-1.366 5.242-.64ZM192.057 13.94c-2.631.62-3.407 1.28-3.407 2.903 0 .704.114 1.024.549 1.515.663.726 1.155.768 3.236.277 2.536-.597 4.769-.085 5.488 1.26.36.64.663 2.027.492 2.219-.038.064-.681-.043-1.419-.235-3.463-.896-6.926-.107-8.573 1.963-.851 1.068-1.173 2.135-1.192 3.884 0 1.921.473 3.18 1.628 4.354 1.211 1.216 2.422 1.686 4.409 1.665 1.836-.022 3.293-.555 4.39-1.622l.738-.726.19.662c.586 2.006 3.349 2.112 4.295.149.341-.683.36-1.174.303-6.616-.076-5.377-.114-5.975-.492-7.127-.719-2.198-1.817-3.436-3.747-4.226-1.419-.576-5.034-.725-6.888-.299Zm5.658 11.29c.643.234.681.32.738 1.216.076 1.238-.492 2.24-1.646 2.966-1.079.662-2.877.726-3.823.107-1.173-.79-1.362-2.796-.36-3.82.89-.896 3.293-1.131 5.091-.47ZM232.837 13.919c-1.23.47-1.874.918-2.631 1.857a6.281 6.281 0 0 0-1.249 5.207c.455 2.347 1.779 3.542 5.337 4.823 3.217 1.174 4.031 2.027 2.952 3.137-.965.981-2.933.747-5.469-.598-1.362-.725-1.779-.853-2.327-.747-1.42.3-1.987 2.476-.909 3.586 1.76 1.835 5.299 2.902 8.194 2.496 3.179-.448 5.015-2.368 5.242-5.463.227-3.372-1.192-5.143-5.545-6.765-2.252-.832-3.009-1.387-3.084-2.198-.133-1.558 2.119-1.792 4.882-.533 1.59.725 2.195.704 2.914-.086.549-.64.682-1.323.417-2.24-.436-1.494-2.744-2.54-5.886-2.668-1.4-.064-2.327 0-2.838.192Z" fill="#9CA3AF"/></svg>